<?xml version="1.0" encoding="utf-8"?>
<!-- Generator: Adobe Illustrator 22.0.0, SVG Export Plug-In . SVG Version: 6.00 Build 0)  -->
<svg version="1.1" id="Capa_1" xmlns="http://www.w3.org/2000/svg" xmlns:xlink="http://www.w3.org/1999/xlink" x="0px" y="0px"
	 viewBox="0 0 3434.1 544.8" style="enable-background:new 0 0 3434.1 544.8;" xml:space="preserve">
<style type="text/css">
	.st0{fill:url(#SVGID_1_);}
	.st1{fill:url(#SVGID_2_);}
	.st2{fill:url(#SVGID_3_);}
	.st3{fill:url(#SVGID_4_);}
	.st4{fill:url(#SVGID_5_);}
	.st5{fill:url(#SVGID_6_);}
	.st6{fill:url(#SVGID_7_);}
	.st7{fill:url(#SVGID_8_);}
	.st8{fill:url(#SVGID_9_);}
	.st9{fill:url(#SVGID_10_);}
	.st10{fill:url(#SVGID_11_);}
	.st11{fill:url(#SVGID_12_);}
	.st12{fill:url(#SVGID_13_);}
	.st13{fill:url(#SVGID_14_);}
	.st14{fill:url(#SVGID_15_);}
	.st15{fill:url(#SVGID_16_);}
	.st16{fill:url(#SVGID_17_);}
	.st17{fill:url(#SVGID_18_);}
	.st18{fill:url(#SVGID_19_);}
	.st19{fill:url(#SVGID_20_);}
	.st20{fill:url(#SVGID_21_);}
	.st21{fill:url(#SVGID_22_);}
	.st22{fill:url(#SVGID_23_);}
	.st23{fill:url(#SVGID_24_);}
	.st24{fill:url(#SVGID_25_);}
	.st25{fill:url(#SVGID_26_);}
	.st26{fill:url(#SVGID_27_);}
	.st27{fill:url(#SVGID_28_);}
	.st28{fill:url(#SVGID_29_);}
	.st29{fill:url(#SVGID_30_);}
	.st30{fill:url(#SVGID_31_);}
	.st31{fill:url(#SVGID_32_);}
	.st32{fill:url(#SVGID_33_);}
	.st33{fill:url(#SVGID_34_);}
	.st34{fill:url(#SVGID_35_);}
	.st35{fill:url(#SVGID_36_);}
	.st36{fill:url(#SVGID_37_);}
	.st37{fill:url(#SVGID_38_);}
	.st38{fill:url(#SVGID_39_);}
	.st39{fill:url(#SVGID_40_);}
	.st40{fill:url(#SVGID_41_);}
	.st41{fill:url(#SVGID_42_);}
	.st42{fill:url(#SVGID_43_);}
	.st43{fill:url(#SVGID_44_);}
	.st44{fill:url(#SVGID_45_);}
	.st45{fill:url(#SVGID_46_);}
	.st46{fill:url(#SVGID_47_);}
	.st47{fill:url(#SVGID_48_);}
	.st48{fill:url(#SVGID_49_);}
	.st49{fill:url(#SVGID_50_);}
	.st50{fill:url(#SVGID_51_);}
	.st51{fill:url(#SVGID_52_);}
	.st52{fill:url(#SVGID_53_);}
	.st53{fill:url(#SVGID_54_);}
	.st54{fill:url(#SVGID_55_);}
	.st55{fill:url(#SVGID_56_);}
	.st56{fill:url(#SVGID_57_);}
	.st57{fill:url(#SVGID_58_);}
	.st58{fill:url(#SVGID_59_);}
	.st59{fill:url(#SVGID_60_);}
	.st60{fill:url(#SVGID_61_);}
	.st61{fill:url(#SVGID_62_);}
	.st62{fill:url(#SVGID_63_);}
	.st63{fill:url(#SVGID_64_);}
	.st64{fill:url(#SVGID_65_);}
	.st65{fill:url(#SVGID_66_);}
	.st66{fill:url(#SVGID_67_);}
	.st67{fill:url(#SVGID_68_);}
	.st68{fill:url(#SVGID_69_);}
	.st69{fill:url(#SVGID_70_);}
	.st70{fill:url(#SVGID_71_);}
	.st71{fill:url(#SVGID_72_);}
	.st72{fill:url(#SVGID_73_);}
	.st73{fill:url(#SVGID_74_);}
	.st74{fill:url(#SVGID_75_);}
</style>
<linearGradient id="SVGID_1_" gradientUnits="userSpaceOnUse" x1="1717.0682" y1="544.7841" x2="1717.0682" y2="0">
	<stop  offset="0" style="stop-color:#000000"/>
	<stop  offset="0.5085" style="stop-color:#000000"/>
	<stop  offset="1" style="stop-color:#000000"/>
</linearGradient>
<rect class="st0" width="3434.1" height="544.8"/>
<g>
	<linearGradient id="SVGID_2_" gradientUnits="userSpaceOnUse" x1="390.9846" y1="377.942" x2="396.2326" y2="77.2807">
		<stop  offset="0" style="stop-color:#FFFFFF"/>
		<stop  offset="0.2111" style="stop-color:#878787"/>
		<stop  offset="0.5188" style="stop-color:#FFFFFF"/>
		<stop  offset="0.7718" style="stop-color:#C6C6C6"/>
		<stop  offset="1" style="stop-color:#FFFFFF"/>
	</linearGradient>
	<path class="st1" d="M457.1,376.8h-26.3l-10.5-66.4H361l-10.5,66.4h-25.6V376l53.2-298.6h26.1L457.1,376.8z M416.9,286.9
		l-26.1-161.8l-26.3,161.8H416.9z"/>
	<linearGradient id="SVGID_3_" gradientUnits="userSpaceOnUse" x1="623.8089" y1="377.4001" x2="629.0425" y2="77.5661">
		<stop  offset="0" style="stop-color:#FFFFFF"/>
		<stop  offset="0.2111" style="stop-color:#878787"/>
		<stop  offset="0.5188" style="stop-color:#FFFFFF"/>
		<stop  offset="0.7718" style="stop-color:#C6C6C6"/>
		<stop  offset="1" style="stop-color:#FFFFFF"/>
	</linearGradient>
	<path class="st2" d="M685.2,355.6c0,6.2-1.9,11.3-5.8,15.3c-3.9,3.9-8.9,5.9-15.2,5.9H589c-6.2,0-11.4-2-15.4-5.9
		c-4-3.9-6-9-6-15.3v-75.7h26.5v73.5h64.5v-71.2l-82.4-99.6c-5.7-6.9-8.6-14.4-8.6-22.7V99.4c0-6.2,2-11.3,6-15.3
		c4-3.9,9.1-5.9,15.4-5.9h75.2c6.2,0,11.3,2,15.2,5.9c3.9,3.9,5.8,9,5.8,15.3v69.5h-26.5v-67.2h-64.5v63l82.8,99.6
		c5.5,6.6,8.2,14.1,8.2,22.3V355.6z"/>
	<linearGradient id="SVGID_4_" gradientUnits="userSpaceOnUse" x1="862.9437" y1="377.4001" x2="868.1773" y2="77.5661">
		<stop  offset="0" style="stop-color:#FFFFFF"/>
		<stop  offset="0.2111" style="stop-color:#878787"/>
		<stop  offset="0.5188" style="stop-color:#FFFFFF"/>
		<stop  offset="0.7718" style="stop-color:#C6C6C6"/>
		<stop  offset="1" style="stop-color:#FFFFFF"/>
	</linearGradient>
	<path class="st3" d="M924.3,355.6c0,6.2-1.9,11.3-5.8,15.3c-3.9,3.9-8.9,5.9-15.2,5.9h-75.2c-6.2,0-11.4-2-15.4-5.9
		c-4-3.9-6-9-6-15.3v-75.7h26.5v73.5h64.5v-71.2l-82.4-99.6c-5.7-6.9-8.6-14.4-8.6-22.7V99.4c0-6.2,2-11.3,6-15.3
		c4-3.9,9.1-5.9,15.4-5.9h75.2c6.2,0,11.3,2,15.2,5.9c3.9,3.9,5.8,9,5.8,15.3v69.5h-26.5v-67.2h-64.5v63l82.8,99.6
		c5.5,6.6,8.2,14.1,8.2,22.3V355.6z"/>
	<linearGradient id="SVGID_5_" gradientUnits="userSpaceOnUse" x1="301.6055" y1="446.051" x2="302.311" y2="405.635">
		<stop  offset="0" style="stop-color:#FFFFFF"/>
		<stop  offset="0.2111" style="stop-color:#878787"/>
		<stop  offset="0.5188" style="stop-color:#FFFFFF"/>
		<stop  offset="0.7718" style="stop-color:#C6C6C6"/>
		<stop  offset="1" style="stop-color:#FFFFFF"/>
	</linearGradient>
	<path class="st4" d="M320.3,445.4c0,0.2-0.2,0.3-0.7,0.3c-0.4,0-0.9,0-1.6-0.1c-0.7-0.1-1.2-0.1-1.6-0.1c-0.4,0-0.9,0-1.6,0.1
		c-0.7,0.1-1.2,0.1-1.6,0.1c-0.5,0-1.2-1.4-2-4.3c-0.8-2.8-1.6-4.3-2.5-4.3c-0.7,0-2.5-0.1-5.4-0.1H299c-3.1,0-4.8,0-5.3,0.1
		c-0.7,0.1-1.4,1.5-2.1,4.3c-0.8,2.8-1.3,4.2-1.8,4.2h-6.3c-0.4,0-0.6-0.1-0.6-0.4c0-0.2,0.1-0.6,0.4-1.3l6.9-18.8
		c0.6-1.5,2.3-5.9,5.3-13.1c0.5-1.2,1.2-3,2.1-5.4c0.2-0.7,0.5-1.1,0.7-1.1c0.4,0,0.9,0,1.6,0.1c0.7,0.1,1.2,0.1,1.6,0.1
		c0.3,0,0.8-0.1,1.5-0.2c0.7-0.1,1.2-0.2,1.5-0.2c0.2,0,0.4,0.3,0.7,1c0.4,1,2.7,6.7,6.6,16.9C317.5,438,320.3,445.3,320.3,445.4z
		 M307.2,429.9c0-0.5-0.8-3-2.5-7.3c-1.6-4.2-2.8-6.9-3.5-8.2c-3.9,9.9-5.8,15-5.8,15.5c0,0.6,0.7,1,2.1,1.1c0.1,0,1,0,2.7,0h2.9
		C305.9,431,307.2,430.7,307.2,429.9z"/>
	<linearGradient id="SVGID_6_" gradientUnits="userSpaceOnUse" x1="335.8369" y1="446.4627" x2="336.547" y2="405.7772">
		<stop  offset="0" style="stop-color:#FFFFFF"/>
		<stop  offset="0.2111" style="stop-color:#878787"/>
		<stop  offset="0.5188" style="stop-color:#FFFFFF"/>
		<stop  offset="0.7718" style="stop-color:#C6C6C6"/>
		<stop  offset="1" style="stop-color:#FFFFFF"/>
	</linearGradient>
	<path class="st5" d="M350.4,406.6c0,2.4-0.1,6-0.3,10.8c-0.2,4.8-0.3,8.4-0.3,10.8c0,7.4,0.2,13,0.5,16.8l0,0.4
		c0,0.2-0.2,0.3-0.8,0.4c-0.4,0-0.9,0-1.5,0c-0.8-0.1-1.2-0.1-1.1-0.1c-0.3,0-0.7,0-1.2,0.1c-0.5,0.1-1,0.1-1.2,0.1
		c-0.3,0-0.4-0.7-0.5-1.9c0-1.3-0.1-2-0.2-2c-0.1,0.1-0.3,0.2-0.4,0.4c-2.6,2.8-5.5,4.2-8.8,4.2c-3.8,0-6.9-1.4-9.3-4.3
		c-2.3-2.7-3.5-6-3.5-9.8c0-4,1.2-7.3,3.5-10c2.4-2.8,5.6-4.3,9.5-4.3c2.4,0,4.4,0.7,6.2,2.1c0.8,0.7,1.6,1.4,2.4,2.1
		c0.1-0.1,0.2-0.2,0.2-0.4v-9.1c0-0.6,0-1.6-0.1-2.8c-0.1-1.3-0.1-2.2-0.1-2.8c0-0.4,0.2-0.7,0.4-0.7c0.7,0,1.7-0.1,3.1-0.2
		c1.4-0.1,2.4-0.2,3.1-0.2C350.2,406,350.4,406.2,350.4,406.6z M343.4,432.1c0-2.2-0.7-4.2-2.1-5.9c-1.5-1.8-3.3-2.7-5.5-2.7
		c-2.3,0-4.2,0.9-5.7,2.7c-1.4,1.7-2.1,3.7-2.1,6.1c0,2.2,0.7,4.2,2.2,5.9c1.5,1.8,3.4,2.6,5.6,2.6c2.2,0,4.1-0.9,5.6-2.7
		C342.7,436.4,343.4,434.4,343.4,432.1z"/>
	<linearGradient id="SVGID_7_" gradientUnits="userSpaceOnUse" x1="366.6405" y1="445.896" x2="367.1096" y2="419.0205">
		<stop  offset="0" style="stop-color:#FFFFFF"/>
		<stop  offset="0.2111" style="stop-color:#878787"/>
		<stop  offset="0.5188" style="stop-color:#FFFFFF"/>
		<stop  offset="0.7718" style="stop-color:#C6C6C6"/>
		<stop  offset="1" style="stop-color:#FFFFFF"/>
	</linearGradient>
	<path class="st6" d="M379.6,427.2c0,2.6-0.1,4.2-0.3,4.6c-0.3,0.8-1.8,3.3-4.5,7.4c-2.8,4.2-4.5,6.4-5,6.6c-0.3,0.1-1,0.2-2.4,0.2
		c-1.3,0-2.1-0.1-2.5-0.2c-0.5-0.2-2.2-2.3-5.1-6.3c-2.8-3.9-4.4-6.3-4.7-7.2c-0.4-1.2-0.7-3-0.7-5.5c0-0.8,0-1.9,0.1-3.5
		s0.1-2.7,0.1-3.5c0-0.4,0.2-0.6,0.6-0.6c0.6,0,1.5,0,2.8,0.1c1.2,0.1,2.1,0.1,2.8,0.1c0.3,0,0.5,0.2,0.5,0.6c0,0.6,0,1.5-0.1,2.7
		c-0.1,1.2-0.1,2.1-0.1,2.7c0,1.7,0.1,3.3,0.3,4.7c0.1,0.7,1,2.5,2.8,5.2c1.8,2.8,2.9,4.2,3.4,4.2c0.4,0,1.4-1.4,3.1-4.1
		c1.6-2.7,2.5-4.3,2.6-5c0.1-0.9,0.2-2.5,0.2-4.8c0-0.6-0.1-1.5-0.2-2.8c-0.1-1.2-0.2-2.2-0.2-2.8c0-0.3,0.1-0.4,0.4-0.4
		c0.6,0,1.5,0,2.7-0.1c1.2-0.1,2.1-0.1,2.7-0.1C379.3,419.2,379.6,421.9,379.6,427.2z"/>
	<linearGradient id="SVGID_8_" gradientUnits="userSpaceOnUse" x1="396.8881" y1="446.4631" x2="397.3867" y2="417.8972">
		<stop  offset="0" style="stop-color:#FFFFFF"/>
		<stop  offset="0.2111" style="stop-color:#878787"/>
		<stop  offset="0.5188" style="stop-color:#FFFFFF"/>
		<stop  offset="0.7718" style="stop-color:#C6C6C6"/>
		<stop  offset="1" style="stop-color:#FFFFFF"/>
	</linearGradient>
	<path class="st7" d="M411.7,420.3c0,0.1,0,0.2-0.1,0.5c-0.7,4.3-1.1,8-1.1,11.1c0,0.2,0.2,4.4,0.7,12.6l0,0.4
		c0,0.5-0.2,0.8-0.7,0.8c-0.5,0-1.3,0.1-2.3,0.2c-1,0.1-1.8,0.2-2.3,0.2c-0.4,0-0.6-0.7-0.8-2c-0.2-1.3-0.4-2-0.5-2
		c-0.1,0-0.6,0.4-1.5,1.1c-1.1,0.9-2.1,1.6-3.1,2c-1.5,0.7-3,1.1-4.4,1.1c-3.6,0-6.7-1.4-9.2-4.3c-2.4-2.8-3.5-6-3.5-9.7
		c0-4.2,1.2-7.6,3.6-10.3c2.5-2.8,5.8-4.2,9.8-4.2c2.9,0,5.4,1,7.5,3c0.3,0.4,0.8,0.9,1.5,1.6c0.1,0.1,0.1,0.1,0.2,0.1
		c0.1,0,0.3-0.6,0.5-1.8c0.2-1.2,0.5-1.8,0.8-1.8c0.5,0,1.4,0.1,2.8,0.4C410.9,419.8,411.7,420.1,411.7,420.3z M404.5,432.1
		c0-2.3-0.7-4.3-2-5.9c-1.4-1.8-3.3-2.7-5.5-2.7c-2.2,0-4.1,0.9-5.6,2.6c-1.4,1.7-2.2,3.7-2.2,5.9c0,2.3,0.7,4.2,2.2,5.9
		c1.5,1.7,3.4,2.6,5.6,2.6c2.2,0,4-0.9,5.5-2.7C403.9,436.2,404.5,434.3,404.5,432.1z"/>
	<linearGradient id="SVGID_9_" gradientUnits="userSpaceOnUse" x1="427.8552" y1="445.9247" x2="428.3391" y2="418.1982">
		<stop  offset="0" style="stop-color:#FFFFFF"/>
		<stop  offset="0.2111" style="stop-color:#878787"/>
		<stop  offset="0.5188" style="stop-color:#FFFFFF"/>
		<stop  offset="0.7718" style="stop-color:#C6C6C6"/>
		<stop  offset="1" style="stop-color:#FFFFFF"/>
	</linearGradient>
	<path class="st8" d="M441,445.2c0,0.4-0.2,0.6-0.6,0.6c-0.6,0-1.5,0-2.8,0c-1.2,0-2.1,0-2.8,0c-0.3,0-0.5-0.3-0.5-0.8
		c0-0.9,0-2.3,0.1-4.2c0.1-1.9,0.1-3.3,0.1-4.2c0-0.7,0-1.9,0-3.4c0-1.5,0-2.6,0-3.4c0-2.1-0.3-3.6-0.9-4.5c-0.7-1-2.1-1.6-4.2-1.6
		c-0.9,0-2.2,0.5-3.9,1.6c-1.8,1.1-2.6,2.1-2.6,2.9v16.8c0,0.5-0.2,0.7-0.5,0.7c-0.6,0-1.5,0-2.7,0c-1.2,0-2.1,0-2.7,0
		c-0.4,0-0.6-0.2-0.6-0.6c0-1.5,0-3.7,0.1-6.6c0-3,0.1-5.2,0.1-6.7c0-4-0.4-7.7-1.3-11c-0.1-0.2-0.1-0.3-0.1-0.4
		c0-0.2,0.1-0.3,0.4-0.4c0.1,0,1.2-0.2,3.2-0.5c2-0.3,3.1-0.5,3.2-0.5c0.1,0,0.2,0.2,0.2,0.4c0.1,1.2,0.3,2.3,0.6,3.5
		c1-0.8,2.3-1.7,3.8-2.9c2-1.2,3.9-1.8,5.7-1.8c3.5,0,5.9,1,7.2,3.1c1,1.5,1.4,3.9,1.4,7.3c0,0.6,0,1.5,0,2.7c0,1.2,0,2.1,0,2.7
		c0,1.3,0,3.1,0.1,5.6C441,442.1,441,443.9,441,445.2z"/>
	<linearGradient id="SVGID_10_" gradientUnits="userSpaceOnUse" x1="454.9125" y1="446.3813" x2="455.4139" y2="417.6589">
		<stop  offset="0" style="stop-color:#FFFFFF"/>
		<stop  offset="0.2111" style="stop-color:#878787"/>
		<stop  offset="0.5188" style="stop-color:#FFFFFF"/>
		<stop  offset="0.7718" style="stop-color:#C6C6C6"/>
		<stop  offset="1" style="stop-color:#FFFFFF"/>
	</linearGradient>
	<path class="st9" d="M465.9,420.3c0,0.4-0.2,1.3-0.6,2.7c-0.4,1.4-0.7,2.1-0.9,2.1c-0.8-0.4-1.7-0.7-2.5-1.1
		c-0.9-0.4-1.8-0.6-2.8-0.6c-2.3,0-4.2,0.9-5.8,2.6s-2.3,3.7-2.3,6c0,2.3,0.8,4.3,2.3,5.9c1.6,1.7,3.5,2.6,5.8,2.6
		c1.3,0,2.5-0.3,3.7-0.9c1.2-0.6,1.7-0.9,1.6-0.9c0.2,0,0.5,0.8,0.8,2.4c0.3,1.4,0.4,2.4,0.4,2.9c0,0.6-1.1,1.2-3.3,1.7
		c-1.8,0.5-3.2,0.7-4.1,0.7c-3.9,0-7.1-1.4-9.8-4.3c-2.6-2.8-3.9-6.2-3.9-10c0-4,1.3-7.3,3.8-10.1c2.6-2.8,5.9-4.3,9.8-4.3
		c2.6,0,5,0.7,7.2,2C465.7,419.9,465.9,420.1,465.9,420.3z"/>
	<linearGradient id="SVGID_11_" gradientUnits="userSpaceOnUse" x1="480.1435" y1="446.4094" x2="480.6456" y2="417.6453">
		<stop  offset="0" style="stop-color:#FFFFFF"/>
		<stop  offset="0.2111" style="stop-color:#878787"/>
		<stop  offset="0.5188" style="stop-color:#FFFFFF"/>
		<stop  offset="0.7718" style="stop-color:#C6C6C6"/>
		<stop  offset="1" style="stop-color:#FFFFFF"/>
	</linearGradient>
	<path class="st10" d="M493.2,430.7c0,1.4-0.6,2.3-1.8,2.8c-0.8,0.3-6.6,0.9-17.4,1.7c0.2,1.6,1.2,3,2.7,4.2
		c1.5,1.1,3.1,1.7,4.8,1.7c3,0,5.7-1,8.1-2.9c0.3-0.2,0.6-0.5,0.9-0.7c0.1,0,0.2,0,0.3,0.1c0,0,0.4,0.7,1.1,1.9c0.7,1.3,1,1.9,1,2
		c0,0.1-0.2,0.3-0.4,0.6c-2.7,2.9-6.3,4.4-10.6,4.4c-4.3,0-7.8-1.3-10.4-3.9c-2.6-2.6-3.9-6-3.9-10.4c0-3.9,1.2-7.2,3.7-10.1
		c2.6-3,5.8-4.5,9.6-4.5c3.5,0,6.5,1.3,8.8,3.9C492,424,493.2,427.1,493.2,430.7z M486.5,429c0-1.6-0.6-2.9-1.8-4.1
		c-1.2-1.2-2.6-1.8-4.1-1.8c-1.7,0-3.2,0.7-4.6,2.1c-1.3,1.4-2,2.9-2,4.7c0,0.4,0.3,0.6,1,0.6c2.8,0,6.1-0.3,9.9-0.8
		C486,429.4,486.5,429.2,486.5,429z"/>
	<linearGradient id="SVGID_12_" gradientUnits="userSpaceOnUse" x1="509.5191" y1="446.4627" x2="510.2293" y2="405.7772">
		<stop  offset="0" style="stop-color:#FFFFFF"/>
		<stop  offset="0.2111" style="stop-color:#878787"/>
		<stop  offset="0.5188" style="stop-color:#FFFFFF"/>
		<stop  offset="0.7718" style="stop-color:#C6C6C6"/>
		<stop  offset="1" style="stop-color:#FFFFFF"/>
	</linearGradient>
	<path class="st11" d="M524.1,406.6c0,2.4-0.1,6-0.3,10.8c-0.2,4.8-0.3,8.4-0.3,10.8c0,7.4,0.2,13,0.5,16.8l0,0.4
		c0,0.2-0.2,0.3-0.8,0.4c-0.4,0-0.9,0-1.5,0c-0.8-0.1-1.2-0.1-1.1-0.1c-0.3,0-0.7,0-1.2,0.1c-0.5,0.1-1,0.1-1.2,0.1
		c-0.3,0-0.4-0.7-0.5-1.9c0-1.3-0.1-2-0.2-2c-0.1,0.1-0.3,0.2-0.4,0.4c-2.6,2.8-5.5,4.2-8.8,4.2c-3.8,0-6.9-1.4-9.3-4.3
		c-2.3-2.7-3.5-6-3.5-9.8c0-4,1.2-7.3,3.5-10c2.4-2.8,5.6-4.3,9.5-4.3c2.4,0,4.4,0.7,6.2,2.1c0.8,0.7,1.6,1.4,2.4,2.1
		c0.1-0.1,0.2-0.2,0.2-0.4v-9.1c0-0.6,0-1.6-0.1-2.8c-0.1-1.3-0.1-2.2-0.1-2.8c0-0.4,0.2-0.7,0.4-0.7c0.7,0,1.7-0.1,3.1-0.2
		c1.4-0.1,2.4-0.2,3.1-0.2C523.9,406,524.1,406.2,524.1,406.6z M517,432.1c0-2.2-0.7-4.2-2.1-5.9c-1.5-1.8-3.3-2.7-5.5-2.7
		c-2.3,0-4.2,0.9-5.7,2.7c-1.4,1.7-2.1,3.7-2.1,6.1c0,2.2,0.7,4.2,2.2,5.9c1.5,1.8,3.4,2.6,5.6,2.6c2.2,0,4.1-0.9,5.6-2.7
		C516.4,436.4,517,434.4,517,432.1z"/>
	<linearGradient id="SVGID_13_" gradientUnits="userSpaceOnUse" x1="554.2284" y1="446.3994" x2="554.9312" y2="406.1349">
		<stop  offset="0" style="stop-color:#FFFFFF"/>
		<stop  offset="0.2111" style="stop-color:#878787"/>
		<stop  offset="0.5188" style="stop-color:#FFFFFF"/>
		<stop  offset="0.7718" style="stop-color:#C6C6C6"/>
		<stop  offset="1" style="stop-color:#FFFFFF"/>
	</linearGradient>
	<path class="st12" d="M565.9,409.2c-0.4,0.6-0.9,1.6-1.5,2.8c-0.2,0.6-0.6,1.4-1.1,2.5c-0.1,0.2-0.3,0.3-0.4,0.3c0,0-0.9-0.3-2.7-1
		c-1.8-0.7-3.3-1-4.5-1c-3.4,0-5.2,1.5-5.2,4.5c0,1.7,1.2,3.2,3.6,4.4c4.1,2.1,6.3,3.3,6.7,3.6c2.4,1.9,3.6,4.5,3.6,7.8
		c0,4.2-1.7,7.5-5,9.9c-3,2.2-6.6,3.3-11,3.3c-2,0-3.1-0.2-3.3-0.7c-0.1-0.7-0.2-1.7-0.5-3.1c-0.2-0.6-0.4-1.4-0.7-2.5
		c-0.1-0.2-0.1-0.3-0.1-0.5c0-0.3,0.1-0.4,0.4-0.4c0.4,0,1.1,0,2.1,0.1s1.6,0.1,2.1,0.1c5.8,0,8.7-1.9,8.7-5.6
		c0-1.8-1.2-3.4-3.5-4.8c-4.3-2.4-6.4-3.7-6.5-3.8c-2.4-1.9-3.5-4.5-3.5-7.7c0-3.5,1.1-6.3,3.4-8.4c2.2-2,5.1-3,8.6-3
		c1.5,0,3.2,0.2,5.2,0.7c2.1,0.5,3.7,1.2,4.8,2C565.8,408.9,565.8,409,565.9,409.2z"/>
	<linearGradient id="SVGID_14_" gradientUnits="userSpaceOnUse" x1="581.8101" y1="446.3773" x2="582.3066" y2="417.935">
		<stop  offset="0" style="stop-color:#FFFFFF"/>
		<stop  offset="0.2111" style="stop-color:#878787"/>
		<stop  offset="0.5188" style="stop-color:#FFFFFF"/>
		<stop  offset="0.7718" style="stop-color:#C6C6C6"/>
		<stop  offset="1" style="stop-color:#FFFFFF"/>
	</linearGradient>
	<path class="st13" d="M595.7,432.1c0,3.9-1.3,7.2-3.8,10c-2.6,2.9-5.9,4.3-9.7,4.3c-3.9,0-7.1-1.4-9.8-4.3c-2.6-2.7-3.8-6.1-3.8-10
		c0-3.9,1.3-7.2,3.8-10c2.6-2.8,5.9-4.2,9.8-4.2c3.9,0,7.1,1.4,9.7,4.2C594.4,424.9,595.7,428.2,595.7,432.1z M589.7,432.1
		c0-2.3-0.7-4.2-2.1-5.8c-1.5-1.7-3.3-2.6-5.6-2.6c-2.2,0-4.1,0.8-5.6,2.5c-1.4,1.6-2.1,3.6-2.1,5.9c0,2.2,0.7,4.2,2.1,5.8
		c1.5,1.7,3.3,2.6,5.6,2.6c2.2,0,4.1-0.9,5.6-2.6C589,436.3,589.7,434.4,589.7,432.1z"/>
	<linearGradient id="SVGID_15_" gradientUnits="userSpaceOnUse" x1="605.1255" y1="445.792" x2="605.845" y2="404.5711">
		<stop  offset="0" style="stop-color:#FFFFFF"/>
		<stop  offset="0.2111" style="stop-color:#878787"/>
		<stop  offset="0.5188" style="stop-color:#FFFFFF"/>
		<stop  offset="0.7718" style="stop-color:#C6C6C6"/>
		<stop  offset="1" style="stop-color:#FFFFFF"/>
	</linearGradient>
	<path class="st14" d="M614.1,409.8c0,0.2-0.2,0.4-0.5,0.4c-0.9,0.1-1.8,0.2-2.7,0.3c-1.1,0.2-1.9,0.5-2.4,1.1
		c-0.9,1-1.4,3.5-1.4,7.5c0.6,0,1.6,0,2.9,0.1c1.3,0,2.3,0.1,3,0.1c0.5,0,0.7,0.2,0.7,0.5c0,0.5,0,1.3,0.1,2.3c0,1,0.1,1.8,0.1,2.3
		c0,0.4-0.2,0.5-0.6,0.5c-0.7,0-1.6,0-3-0.1c-1.3-0.1-2.3-0.1-2.9-0.1v8.4c0,1.3,0,3.3,0.1,5.9c0.1,2.7,0.1,4.6,0.1,5.9
		c0,0.5-0.2,0.8-0.6,0.8h-5.1c-0.5,0-0.7-0.3-0.7-0.9v-19.3c0-0.5-0.6-0.7-1.7-0.7c-1.2,0-1.9,0-2-0.1c-0.1-0.1-0.1-0.4-0.1-1
		c0-0.4,0-1-0.1-1.8c0-0.8-0.1-1.4-0.1-1.8c0-0.4,1.2-0.7,3.6-0.8c-0.1-1.2-0.1-2.2-0.1-2.9c0-3.3,0.6-5.7,1.8-7.3
		c1-1.4,2.6-2.5,4.6-3.3c1.8-0.7,3.7-1.1,5.6-1.1c0.2,0,0.3,0.1,0.4,0.3c0,0,0.2,0.8,0.5,2.4C613.9,408.9,614.1,409.7,614.1,409.8z"
		/>
	<linearGradient id="SVGID_16_" gradientUnits="userSpaceOnUse" x1="622.7357" y1="446.0521" x2="623.3704" y2="409.6913">
		<stop  offset="0" style="stop-color:#FFFFFF"/>
		<stop  offset="0.2111" style="stop-color:#878787"/>
		<stop  offset="0.5188" style="stop-color:#FFFFFF"/>
		<stop  offset="0.7718" style="stop-color:#C6C6C6"/>
		<stop  offset="1" style="stop-color:#FFFFFF"/>
	</linearGradient>
	<path class="st15" d="M632.1,440.6c0,0.4,0,1-0.1,1.7c-0.1,0.9-0.2,1.4-0.2,1.7c0,0.3,0,0.5-0.1,0.6c-0.1,0.1-0.3,0.3-0.5,0.4
		c-1.5,0.7-3.9,1.1-7.2,1.1c-4.4,0-6.6-2-6.6-5.9c0-1.6,0-4,0.1-7.2c0.1-3.2,0.1-5.6,0.1-7.2c0-0.8-0.4-1.2-1.2-1.2
		c-0.7,0-1.4,0-2,0c-0.4-0.1-0.6-0.9-0.6-2.3c0-0.5,0-1.1,0.1-1.7c0.1-0.4,0.4-0.7,0.9-0.8c0.5,0,0.9,0,1.4,0c0.9,0,1.3-0.4,1.3-1.2
		c0-0.7,0-1.9-0.1-3.4c0-1.5-0.1-2.7-0.1-3.4c0-1.4,0.3-2,0.8-2c0.2,0,1.9,0.3,5.3,0.9c0.4,0.1,0.6,0.3,0.6,0.6
		c0,0.8-0.1,2.1-0.2,3.7c-0.1,1.6-0.2,2.9-0.2,3.7c0,0.5,0.3,0.8,0.8,0.8h6.7c0.3,0,0.5,0.1,0.5,0.3c0,0.2,0,0.6-0.1,1.1
		c-0.1,0.5-0.1,0.9-0.1,1.1c0,0.3,0,0.7,0,1.3c0,0.6,0,1,0,1.3c0,0.4-0.3,0.5-0.8,0.5c-0.7,0-1.9-0.1-3.4-0.2s-2.6-0.2-3.4-0.2
		c-0.1,0-0.3,0.5-0.3,1.6c-0.1,1.3-0.1,3.2-0.1,5.6v4.2c0,1.6,0.2,2.7,0.4,3.4c0.5,1,1.4,1.5,2.8,1.5c0.6,0,1.4-0.1,2.6-0.4
		c1.1-0.3,2-0.4,2.5-0.4C632,440.1,632.1,440.2,632.1,440.6z"/>
	<linearGradient id="SVGID_17_" gradientUnits="userSpaceOnUse" x1="653.8868" y1="446.0009" x2="654.3605" y2="418.868">
		<stop  offset="0" style="stop-color:#FFFFFF"/>
		<stop  offset="0.2111" style="stop-color:#878787"/>
		<stop  offset="0.5188" style="stop-color:#FFFFFF"/>
		<stop  offset="0.7718" style="stop-color:#C6C6C6"/>
		<stop  offset="1" style="stop-color:#FFFFFF"/>
	</linearGradient>
	<path class="st16" d="M673.8,425.6c0,3.5-0.2,5.7-0.6,6.6c-0.5,1.2-1.9,3.7-4.2,7.4c-2.4,4-3.9,6-4.4,6.2c-0.2,0-0.9,0.1-2.2,0.1
		c-0.9,0-1.4,0-1.6-0.1c-0.6-0.1-2.8-3.4-6.7-9.7c-1.1,1.8-2.1,3.5-3.2,5.3c-1.8,2.8-2.9,4.2-3.4,4.3c-0.1,0-0.8,0.1-1.8,0.1
		c-1.1,0-1.7,0-1.9-0.1c-0.6-0.1-2-2.2-4.4-6.1c-2.2-3.7-3.6-6.2-4-7.4c-0.4-1.1-0.6-3.3-0.6-6.6c0-2.7,0.1-4.6,0.3-5.6
		c0.1-0.4,0.3-0.6,0.7-0.6c0.6,0,1.4,0,2.5,0.1c1.1,0,2,0.1,2.5,0.1c0.4,0,0.5,0.3,0.5,0.9c0,0.4,0,1-0.1,1.9c0,0.8-0.1,1.5-0.1,1.9
		c0,3.3,0.1,5.6,0.3,6.9c0.2,1.2,1.6,3.6,4.4,7.4c0.3,0.4,0.5,0.7,0.6,0.7s0.2-0.2,0.5-0.6c2.4-3.5,3.8-5.9,4.2-7.2
		c0.2-0.9,0.3-2.9,0.3-6c0-0.6,0-1.6-0.1-2.8c-0.1-1.3-0.1-2.2-0.1-2.8c0-0.4,0.2-0.6,0.5-0.6h5.4c0.3,0,0.4,0.2,0.4,0.7
		c0,0.6,0,1.5-0.1,2.7c-0.1,1.2-0.1,2.1-0.1,2.7c0,3.3,0.1,5.2,0.2,5.7c0.1,0.5,1,2,2.6,4.4c1.6,2.4,2.6,3.6,2.8,3.6
		c0.1,0,0.2-0.2,0.5-0.7c2.4-3.6,3.7-6,3.8-7.2c0.2-1,0.3-2.7,0.3-5.1c0-0.7-0.1-1.7-0.2-3.1c-0.1-1.3-0.2-2.3-0.2-2.9
		c0-0.3,0.2-0.4,0.6-0.4c0.6,0,1.4,0,2.5-0.1c1.1,0,1.9-0.1,2.5-0.1c0.4,0,0.7,0.2,0.8,0.6C673.7,420.6,673.8,422.5,673.8,425.6z"/>
	<linearGradient id="SVGID_18_" gradientUnits="userSpaceOnUse" x1="690.473" y1="446.4631" x2="690.9716" y2="417.8972">
		<stop  offset="0" style="stop-color:#FFFFFF"/>
		<stop  offset="0.2111" style="stop-color:#878787"/>
		<stop  offset="0.5188" style="stop-color:#FFFFFF"/>
		<stop  offset="0.7718" style="stop-color:#C6C6C6"/>
		<stop  offset="1" style="stop-color:#FFFFFF"/>
	</linearGradient>
	<path class="st17" d="M705.3,420.3c0,0.1,0,0.2-0.1,0.5c-0.7,4.3-1.1,8-1.1,11.1c0,0.2,0.2,4.4,0.7,12.6l0,0.4
		c0,0.5-0.2,0.8-0.7,0.8s-1.3,0.1-2.3,0.2c-1,0.1-1.8,0.2-2.3,0.2c-0.4,0-0.6-0.7-0.8-2c-0.2-1.3-0.4-2-0.5-2
		c-0.1,0-0.6,0.4-1.5,1.1c-1.1,0.9-2.1,1.6-3.1,2c-1.5,0.7-3,1.1-4.4,1.1c-3.6,0-6.7-1.4-9.2-4.3c-2.4-2.8-3.5-6-3.5-9.7
		c0-4.2,1.2-7.6,3.6-10.3c2.5-2.8,5.8-4.2,9.8-4.2c2.9,0,5.4,1,7.5,3c0.3,0.4,0.8,0.9,1.5,1.6c0.1,0.1,0.1,0.1,0.2,0.1
		c0.1,0,0.3-0.6,0.5-1.8c0.2-1.2,0.5-1.8,0.8-1.8c0.5,0,1.4,0.1,2.8,0.4C704.5,419.8,705.3,420.1,705.3,420.3z M698.1,432.1
		c0-2.3-0.7-4.3-2-5.9c-1.4-1.8-3.3-2.7-5.5-2.7c-2.2,0-4.1,0.9-5.6,2.6c-1.4,1.7-2.2,3.7-2.2,5.9c0,2.3,0.7,4.2,2.2,5.9
		c1.5,1.7,3.4,2.6,5.6,2.6c2.2,0,4-0.9,5.5-2.7C697.4,436.2,698.1,434.3,698.1,432.1z"/>
	<linearGradient id="SVGID_19_" gradientUnits="userSpaceOnUse" x1="716.8517" y1="445.8447" x2="717.3289" y2="418.511">
		<stop  offset="0" style="stop-color:#FFFFFF"/>
		<stop  offset="0.2111" style="stop-color:#878787"/>
		<stop  offset="0.5188" style="stop-color:#FFFFFF"/>
		<stop  offset="0.7718" style="stop-color:#C6C6C6"/>
		<stop  offset="1" style="stop-color:#FFFFFF"/>
	</linearGradient>
	<path class="st18" d="M725.9,419.4c0,2.1-0.1,3.9-0.4,5.6c-0.1,0.4-0.2,0.6-0.6,0.6c-0.4,0-1,0-1.8-0.1c-0.8-0.1-1.4-0.1-1.8-0.1
		c-2.4,0-3.9,0.7-4.5,2c-0.4,0.8-0.6,2.5-0.6,5v3.1c0,1,0,2.6,0.1,4.8c0.1,2.1,0.1,3.7,0.1,4.8c0,0.5-0.2,0.8-0.6,0.8
		c-0.6,0-1.5,0-2.6,0c-1.2,0-2.1,0-2.6,0c-0.4,0-0.6-0.2-0.6-0.7c0-1.5,0-3.8,0.1-6.8c0-3,0.1-5.3,0.1-6.9c0-4.6-0.4-8.3-1.3-11.1
		c0-0.1-0.1-0.3-0.1-0.3c0-0.2,0.1-0.4,0.4-0.5c0.7-0.1,1.7-0.2,2.9-0.3c2-0.4,3-0.6,2.8-0.6c0.3,0,0.5,0.6,0.6,1.7
		c0.1,1.1,0.3,1.7,0.5,1.7c0,0,0.1,0,0.1-0.1c0.8-0.5,1.5-1,2.3-1.5c0.8-0.5,1.7-0.9,2.6-1.1c0.7-0.2,1.7-0.3,2.8-0.3
		C725.2,418.8,725.9,419,725.9,419.4z"/>
	<linearGradient id="SVGID_20_" gradientUnits="userSpaceOnUse" x1="739.7268" y1="446.4094" x2="740.2289" y2="417.6452">
		<stop  offset="0" style="stop-color:#FFFFFF"/>
		<stop  offset="0.2111" style="stop-color:#878787"/>
		<stop  offset="0.5188" style="stop-color:#FFFFFF"/>
		<stop  offset="0.7718" style="stop-color:#C6C6C6"/>
		<stop  offset="1" style="stop-color:#FFFFFF"/>
	</linearGradient>
	<path class="st19" d="M752.8,430.7c0,1.4-0.6,2.3-1.8,2.8c-0.8,0.3-6.6,0.9-17.4,1.7c0.2,1.6,1.2,3,2.7,4.2
		c1.5,1.1,3.1,1.7,4.8,1.7c3,0,5.7-1,8.1-2.9c0.3-0.2,0.6-0.5,0.9-0.7c0.2,0,0.2,0,0.3,0.1s0.4,0.7,1.1,1.9c0.7,1.3,1,1.9,1,2
		c0,0.1-0.1,0.3-0.4,0.6c-2.7,2.9-6.3,4.4-10.6,4.4c-4.3,0-7.8-1.3-10.4-3.9c-2.6-2.6-3.9-6-3.9-10.4c0-3.9,1.2-7.2,3.7-10.1
		c2.6-3,5.8-4.5,9.6-4.5c3.5,0,6.5,1.3,8.8,3.9C751.6,424,752.8,427.1,752.8,430.7z M746.1,429c0-1.6-0.6-2.9-1.8-4.1
		c-1.2-1.2-2.6-1.8-4.1-1.8c-1.7,0-3.3,0.7-4.6,2.1c-1.3,1.4-2,2.9-2,4.7c0,0.4,0.3,0.6,1,0.6c2.8,0,6.1-0.3,9.9-0.8
		C745.5,429.4,746.1,429.2,746.1,429z"/>
	<linearGradient id="SVGID_21_" gradientUnits="userSpaceOnUse" x1="781.8587" y1="446.3994" x2="782.5615" y2="406.1349">
		<stop  offset="0" style="stop-color:#FFFFFF"/>
		<stop  offset="0.2111" style="stop-color:#878787"/>
		<stop  offset="0.5188" style="stop-color:#FFFFFF"/>
		<stop  offset="0.7718" style="stop-color:#C6C6C6"/>
		<stop  offset="1" style="stop-color:#FFFFFF"/>
	</linearGradient>
	<path class="st20" d="M793.6,409.2c-0.4,0.6-0.9,1.6-1.5,2.8c-0.2,0.6-0.6,1.4-1.1,2.5c-0.1,0.2-0.3,0.3-0.4,0.3c0,0-0.9-0.3-2.7-1
		c-1.8-0.7-3.3-1-4.5-1c-3.4,0-5.2,1.5-5.2,4.5c0,1.7,1.2,3.2,3.6,4.4c4.1,2.1,6.3,3.3,6.7,3.6c2.4,1.9,3.6,4.5,3.6,7.8
		c0,4.2-1.7,7.5-5,9.9c-3,2.2-6.6,3.3-11,3.3c-2,0-3.1-0.2-3.3-0.7c-0.1-0.7-0.2-1.7-0.5-3.1c-0.2-0.6-0.4-1.4-0.7-2.5
		c-0.1-0.2-0.1-0.3-0.1-0.5c0-0.3,0.1-0.4,0.4-0.4c0.4,0,1.1,0,2.1,0.1c0.9,0.1,1.6,0.1,2.1,0.1c5.8,0,8.7-1.9,8.7-5.6
		c0-1.8-1.2-3.4-3.5-4.8c-4.3-2.4-6.4-3.7-6.5-3.8c-2.4-1.9-3.5-4.5-3.5-7.7c0-3.5,1.1-6.3,3.4-8.4c2.2-2,5.1-3,8.6-3
		c1.5,0,3.2,0.2,5.2,0.7c2.1,0.5,3.7,1.2,4.8,2C793.4,408.9,793.5,409,793.6,409.2z"/>
	<linearGradient id="SVGID_22_" gradientUnits="userSpaceOnUse" x1="809.4398" y1="446.3773" x2="809.9362" y2="417.935">
		<stop  offset="0" style="stop-color:#FFFFFF"/>
		<stop  offset="0.2111" style="stop-color:#878787"/>
		<stop  offset="0.5188" style="stop-color:#FFFFFF"/>
		<stop  offset="0.7718" style="stop-color:#C6C6C6"/>
		<stop  offset="1" style="stop-color:#FFFFFF"/>
	</linearGradient>
	<path class="st21" d="M823.3,432.1c0,3.9-1.3,7.2-3.8,10c-2.6,2.9-5.9,4.3-9.7,4.3c-3.9,0-7.1-1.4-9.8-4.3c-2.6-2.7-3.8-6.1-3.8-10
		c0-3.9,1.3-7.2,3.8-10c2.6-2.8,5.9-4.2,9.8-4.2c3.9,0,7.1,1.4,9.7,4.2C822,424.9,823.3,428.2,823.3,432.1z M817.4,432.1
		c0-2.3-0.7-4.2-2.1-5.8c-1.5-1.7-3.3-2.6-5.6-2.6c-2.2,0-4.1,0.8-5.6,2.5c-1.4,1.6-2.1,3.6-2.1,5.9c0,2.2,0.7,4.2,2.1,5.8
		c1.5,1.7,3.3,2.6,5.6,2.6c2.2,0,4.1-0.9,5.6-2.6C816.7,436.3,817.4,434.4,817.4,432.1z"/>
	<linearGradient id="SVGID_23_" gradientUnits="userSpaceOnUse" x1="830.1735" y1="445.7708" x2="830.8621" y2="406.3228">
		<stop  offset="0" style="stop-color:#FFFFFF"/>
		<stop  offset="0.2111" style="stop-color:#878787"/>
		<stop  offset="0.5188" style="stop-color:#FFFFFF"/>
		<stop  offset="0.7718" style="stop-color:#C6C6C6"/>
		<stop  offset="1" style="stop-color:#FFFFFF"/>
	</linearGradient>
	<path class="st22" d="M834.3,406.8l0,0.4c-0.4,7-0.6,12.9-0.6,17.9c0,2.2,0,5.6,0.1,10c0.1,4.4,0.1,7.8,0.1,10
		c0,0.4-0.1,0.6-0.4,0.6h-5.4c-0.3,0-0.5-0.2-0.5-0.6c0-2.2,0-5.5,0.1-10c0-4.4,0.1-7.8,0.1-10c0-2-0.1-5.1-0.3-9.1
		c-0.2-4-0.3-7.1-0.3-9.1c0-0.4,0.2-0.6,0.6-0.6c0.3,0,0.8,0,1.5,0.1c0.7,0.1,1.2,0.1,1.5,0.1c0.4,0,0.9,0,1.6-0.1
		c0.7-0.1,1.2-0.1,1.5-0.1S834.4,406.5,834.3,406.8z"/>
	<linearGradient id="SVGID_24_" gradientUnits="userSpaceOnUse" x1="852.6132" y1="445.9105" x2="853.0812" y2="419.0988">
		<stop  offset="0" style="stop-color:#FFFFFF"/>
		<stop  offset="0.2111" style="stop-color:#878787"/>
		<stop  offset="0.5188" style="stop-color:#FFFFFF"/>
		<stop  offset="0.7718" style="stop-color:#C6C6C6"/>
		<stop  offset="1" style="stop-color:#FFFFFF"/>
	</linearGradient>
	<path class="st23" d="M865.9,420.3c0,1.4-0.1,3.4-0.2,6.2c-0.1,2.8-0.2,4.8-0.2,6.2c0,1.4,0,3.4,0.1,6.1c0.1,2.7,0.1,4.8,0.1,6.1
		c0,0.4-0.2,0.6-0.5,0.7c-0.2,0-2,0.1-5.7,0.1c-0.2,0-0.4-0.7-0.4-2.1c0-1.4-0.2-2.1-0.3-2.1c-0.1,0-0.2,0.1-0.4,0.3
		c-3.1,2.7-6.2,4.1-9.3,4.1c-4.1,0-6.9-1.5-8.2-4.5c-0.8-1.9-1.2-5.2-1.2-10c0-4.3,0.3-8,1-11c0.2-0.7,0.5-1.1,0.9-1.1
		c0.5,0,1.4,0,2.4,0c1.1,0,1.9,0,2.4,0c0.4,0,0.6,0.2,0.6,0.6c0,0.7-0.1,1.9-0.4,3.6c-0.3,1.8-0.4,3.1-0.4,3.8
		c-0.1,1.1-0.1,2.4-0.1,3.7c0,3.3,0.2,5.5,0.7,6.6c0.8,2,2.6,3,5.4,3c1.2,0,2.6-0.6,4.2-1.7c1.7-1.2,2.6-2.4,2.6-3.5
		c0.1-1.4,0.1-6.3,0.1-14.8c0-0.9,0.4-1.4,1.2-1.4h4.6C865.6,419.3,865.9,419.6,865.9,420.3z"/>
	<linearGradient id="SVGID_25_" gradientUnits="userSpaceOnUse" x1="877.8303" y1="446.0521" x2="878.465" y2="409.6913">
		<stop  offset="0" style="stop-color:#FFFFFF"/>
		<stop  offset="0.2111" style="stop-color:#878787"/>
		<stop  offset="0.5188" style="stop-color:#FFFFFF"/>
		<stop  offset="0.7718" style="stop-color:#C6C6C6"/>
		<stop  offset="1" style="stop-color:#FFFFFF"/>
	</linearGradient>
	<path class="st24" d="M887.2,440.6c0,0.4,0,1-0.1,1.7c-0.1,0.9-0.2,1.4-0.2,1.7c0,0.3,0,0.5-0.1,0.6c-0.1,0.1-0.3,0.3-0.5,0.4
		c-1.5,0.7-3.9,1.1-7.2,1.1c-4.4,0-6.6-2-6.6-5.9c0-1.6,0-4,0.1-7.2c0.1-3.2,0.1-5.6,0.1-7.2c0-0.8-0.4-1.2-1.2-1.2
		c-0.7,0-1.4,0-2,0c-0.4-0.1-0.6-0.9-0.6-2.3c0-0.5,0-1.1,0.1-1.7c0.1-0.4,0.4-0.7,0.9-0.8c0.5,0,0.9,0,1.4,0c0.9,0,1.3-0.4,1.3-1.2
		c0-0.7,0-1.9-0.1-3.4c0-1.5-0.1-2.7-0.1-3.4c0-1.4,0.3-2,0.8-2c0.2,0,1.9,0.3,5.3,0.9c0.4,0.1,0.6,0.3,0.6,0.6
		c0,0.8-0.1,2.1-0.2,3.7c-0.1,1.6-0.2,2.9-0.2,3.7c0,0.5,0.3,0.8,0.8,0.8h6.7c0.3,0,0.5,0.1,0.5,0.3c0,0.2,0,0.6-0.1,1.1
		c-0.1,0.5-0.1,0.9-0.1,1.1c0,0.3,0,0.7,0,1.3c0,0.6,0,1,0,1.3c0,0.4-0.3,0.5-0.8,0.5c-0.7,0-1.9-0.1-3.4-0.2
		c-1.5-0.1-2.6-0.2-3.4-0.2c-0.1,0-0.3,0.5-0.3,1.6c-0.1,1.3-0.1,3.2-0.1,5.6v4.2c0,1.6,0.2,2.7,0.4,3.4c0.5,1,1.4,1.5,2.8,1.5
		c0.6,0,1.4-0.1,2.6-0.4c1.1-0.3,2-0.4,2.5-0.4C887.1,440.1,887.2,440.2,887.2,440.6z"/>
	<linearGradient id="SVGID_26_" gradientUnits="userSpaceOnUse" x1="894.0731" y1="445.7155" x2="894.7196" y2="408.6746">
		<stop  offset="0" style="stop-color:#FFFFFF"/>
		<stop  offset="0.2111" style="stop-color:#878787"/>
		<stop  offset="0.5188" style="stop-color:#FFFFFF"/>
		<stop  offset="0.7718" style="stop-color:#C6C6C6"/>
		<stop  offset="1" style="stop-color:#FFFFFF"/>
	</linearGradient>
	<path class="st25" d="M898.5,412.2c0,2.3-1.3,3.5-3.8,3.5c-2.6,0-3.9-1.2-3.9-3.5c0-1,0.4-1.9,1.2-2.6c0.7-0.6,1.6-1,2.7-1
		c1,0,1.9,0.3,2.7,1C898.1,410.3,898.5,411.2,898.5,412.2z M898.3,419.8c0,1.4-0.1,3.6-0.3,6.5s-0.3,5.1-0.3,6.5
		c0,1.4,0,3.4,0.1,6.1c0.1,2.7,0.1,4.8,0.1,6.1c0,0.4-0.2,0.6-0.5,0.6H892c-0.4,0-0.6-0.4-0.6-1.2c0-1.3,0-3.2,0.1-5.8
		c0.1-2.6,0.1-4.5,0.1-5.8c0-1.5-0.1-3.6-0.3-6.6c-0.2-2.9-0.3-5.1-0.3-6.6c0-0.3,0.2-0.5,0.6-0.5c0.3,0,0.9,0,1.6,0.1
		c0.7,0.1,1.2,0.1,1.6,0.1c0.4,0,0.9,0,1.6-0.1c0.7-0.1,1.2-0.1,1.6-0.1C898.2,419.3,898.3,419.4,898.3,419.8z"/>
	<linearGradient id="SVGID_27_" gradientUnits="userSpaceOnUse" x1="915.4557" y1="446.3773" x2="915.9522" y2="417.935">
		<stop  offset="0" style="stop-color:#FFFFFF"/>
		<stop  offset="0.2111" style="stop-color:#878787"/>
		<stop  offset="0.5188" style="stop-color:#FFFFFF"/>
		<stop  offset="0.7718" style="stop-color:#C6C6C6"/>
		<stop  offset="1" style="stop-color:#FFFFFF"/>
	</linearGradient>
	<path class="st26" d="M929.3,432.1c0,3.9-1.3,7.2-3.8,10c-2.6,2.9-5.9,4.3-9.7,4.3c-3.9,0-7.1-1.4-9.8-4.3c-2.6-2.7-3.8-6.1-3.8-10
		c0-3.9,1.3-7.2,3.8-10c2.6-2.8,5.9-4.2,9.8-4.2c3.9,0,7.1,1.4,9.7,4.2C928,424.9,929.3,428.2,929.3,432.1z M923.4,432.1
		c0-2.3-0.7-4.2-2.1-5.8c-1.5-1.7-3.3-2.6-5.6-2.6c-2.2,0-4.1,0.8-5.6,2.5c-1.4,1.6-2.1,3.6-2.1,5.9c0,2.2,0.7,4.2,2.1,5.8
		c1.5,1.7,3.3,2.6,5.6,2.6c2.2,0,4.1-0.9,5.6-2.6C922.7,436.3,923.4,434.4,923.4,432.1z"/>
	<linearGradient id="SVGID_28_" gradientUnits="userSpaceOnUse" x1="944.8352" y1="445.9248" x2="945.3192" y2="418.1982">
		<stop  offset="0" style="stop-color:#FFFFFF"/>
		<stop  offset="0.2111" style="stop-color:#878787"/>
		<stop  offset="0.5188" style="stop-color:#FFFFFF"/>
		<stop  offset="0.7718" style="stop-color:#C6C6C6"/>
		<stop  offset="1" style="stop-color:#FFFFFF"/>
	</linearGradient>
	<path class="st27" d="M958,445.2c0,0.4-0.2,0.6-0.6,0.6c-0.6,0-1.5,0-2.8,0c-1.2,0-2.1,0-2.8,0c-0.3,0-0.5-0.3-0.5-0.8
		c0-0.9,0-2.3,0.1-4.2c0.1-1.9,0.1-3.3,0.1-4.2c0-0.7,0-1.9,0-3.4c0-1.5,0-2.6,0-3.4c0-2.1-0.3-3.6-0.9-4.5c-0.7-1-2.1-1.6-4.2-1.6
		c-0.9,0-2.2,0.5-3.9,1.6c-1.8,1.1-2.6,2.1-2.6,2.9v16.8c0,0.5-0.2,0.7-0.5,0.7c-0.6,0-1.5,0-2.7,0c-1.2,0-2.1,0-2.7,0
		c-0.4,0-0.6-0.2-0.6-0.6c0-1.5,0-3.7,0.1-6.6c0-3,0.1-5.2,0.1-6.7c0-4-0.4-7.7-1.3-11c-0.1-0.2-0.1-0.3-0.1-0.4
		c0-0.2,0.1-0.3,0.4-0.4c0.1,0,1.2-0.2,3.2-0.5c2-0.3,3.1-0.5,3.2-0.5c0.1,0,0.2,0.2,0.2,0.4c0.1,1.2,0.3,2.3,0.6,3.5
		c1-0.8,2.3-1.7,3.8-2.9c2-1.2,3.9-1.8,5.7-1.8c3.5,0,5.9,1,7.2,3.1c1,1.5,1.4,3.9,1.4,7.3c0,0.6,0,1.5,0,2.7c0,1.2,0,2.1,0,2.7
		c0,1.3,0,3.1,0.1,5.6C958,442.1,958,443.9,958,445.2z"/>
	<linearGradient id="SVGID_29_" gradientUnits="userSpaceOnUse" x1="968.8149" y1="446.1616" x2="969.3066" y2="417.9958">
		<stop  offset="0" style="stop-color:#FFFFFF"/>
		<stop  offset="0.2111" style="stop-color:#878787"/>
		<stop  offset="0.5188" style="stop-color:#FFFFFF"/>
		<stop  offset="0.7718" style="stop-color:#C6C6C6"/>
		<stop  offset="1" style="stop-color:#FFFFFF"/>
	</linearGradient>
	<path class="st28" d="M976.4,437.1c0,2.8-1.1,5-3.3,6.7c-2,1.5-4.5,2.3-7.4,2.3c-1.1,0-1.8,0-1.9-0.1c-0.3-0.1-0.5-0.6-0.5-1.4
		c0-0.4-0.1-1-0.2-1.9c-0.1-0.8-0.2-1.4-0.2-1.8c0-0.2,0.2-0.4,0.5-0.5c0.2-0.1,0.6-0.1,1,0c0.6,0.1,0.9,0.1,0.8,0.1
		c3.5,0,5.3-1.1,5.3-3.3c0-1-0.8-2-2.3-2.8c-2.5-1.4-4-2.2-4.3-2.6c-1.6-1.3-2.3-3.1-2.3-5.2c0-2.8,1.1-5,3.2-6.6
		c1.9-1.4,4.3-2.1,7.2-2.1c0.3,0,0.5,0.1,0.6,0.4c0.1,0.2,0.4,1,0.7,2.3s0.5,2,0.5,2.3c0,0.2-0.2,0.3-0.5,0.4
		c-1.2,0.2-2.4,0.3-3.6,0.5c-1.4,0.4-2.2,1.2-2.2,2.4c0,0.8,0.8,1.7,2.3,2.6c2.2,1.3,3.7,2.2,4.3,2.7
		C975.7,432.9,976.4,434.8,976.4,437.1z"/>
</g>
<linearGradient id="SVGID_30_" gradientUnits="userSpaceOnUse" x1="0" y1="490.8599" x2="3434.1365" y2="490.8599">
	<stop  offset="0" style="stop-color:#FFFFFF"/>
	<stop  offset="0.2111" style="stop-color:#878787"/>
	<stop  offset="0.5188" style="stop-color:#FFFFFF"/>
	<stop  offset="0.7718" style="stop-color:#C6C6C6"/>
	<stop  offset="1" style="stop-color:#FFFFFF"/>
</linearGradient>
<rect y="481.6" class="st29" width="3434.1" height="18.5"/>
<g>
	<linearGradient id="SVGID_31_" gradientUnits="userSpaceOnUse" x1="1093.5458" y1="104.0859" x2="1093.5458" y2="206.0212">
		<stop  offset="0" style="stop-color:#FFFFFF"/>
		<stop  offset="0.2111" style="stop-color:#878787"/>
		<stop  offset="0.5188" style="stop-color:#FFFFFF"/>
		<stop  offset="0.5974" style="stop-color:#000000"/>
		<stop  offset="0.7718" style="stop-color:#C6C6C6"/>
		<stop  offset="1" style="stop-color:#FFFFFF"/>
	</linearGradient>
	<path class="st30" d="M1130.7,115.9h-30.2V206h-14v-90.1h-30.2v-11.9h74.4V115.9z"/>
	<linearGradient id="SVGID_32_" gradientUnits="userSpaceOnUse" x1="1181.4036" y1="95.8187" x2="1181.4036" y2="206.0212">
		<stop  offset="0" style="stop-color:#FFFFFF"/>
		<stop  offset="0.2111" style="stop-color:#878787"/>
		<stop  offset="0.5188" style="stop-color:#FFFFFF"/>
		<stop  offset="0.5974" style="stop-color:#000000"/>
		<stop  offset="0.7718" style="stop-color:#C6C6C6"/>
		<stop  offset="1" style="stop-color:#FFFFFF"/>
	</linearGradient>
	<path class="st31" d="M1212.9,206h-13.6v-50c0-6-1.1-10.5-3.4-13.5c-2.3-3-5.5-4.5-9.7-4.5c-1.8,0-3.5,0.2-5.1,0.7
		c-1.6,0.5-3.2,1.4-5,2.6c-1.7,1.2-3.6,2.9-5.6,5c-2,2.1-4.4,4.7-7,7.8V206h-13.6V95.8h13.6v31.9L1163,140c2.1-2.5,4.2-4.7,6.3-6.4
		c2.1-1.7,4.1-3.2,6.2-4.3c2.1-1.1,4.1-1.9,6.3-2.3c2.1-0.5,4.3-0.7,6.6-0.7c7.8,0,13.8,2.4,18.1,7.1c4.3,4.8,6.4,11.9,6.4,21.5V206
		z"/>
	<linearGradient id="SVGID_33_" gradientUnits="userSpaceOnUse" x1="1269.1444" y1="126.3135" x2="1269.1444" y2="207.425">
		<stop  offset="0" style="stop-color:#FFFFFF"/>
		<stop  offset="0.2111" style="stop-color:#878787"/>
		<stop  offset="0.5188" style="stop-color:#FFFFFF"/>
		<stop  offset="0.5974" style="stop-color:#000000"/>
		<stop  offset="0.7718" style="stop-color:#C6C6C6"/>
		<stop  offset="1" style="stop-color:#FFFFFF"/>
	</linearGradient>
	<path class="st32" d="M1303.9,162.7c0,1.9,0,3.5-0.1,4.8c-0.1,1.3-0.1,2.5-0.2,3.7h-55c0,8,2.2,14.2,6.7,18.4
		c4.5,4.3,10.9,6.4,19.3,6.4c2.3,0,4.6-0.1,6.9-0.3c2.3-0.2,4.5-0.4,6.6-0.7c2.1-0.3,4.2-0.7,6.1-1.1s3.8-0.8,5.4-1.3v11.2
		c-3.7,1-7.9,1.9-12.5,2.5c-4.7,0.6-9.5,1-14.5,1c-6.7,0-12.5-0.9-17.3-2.7c-4.8-1.8-8.8-4.5-11.9-7.9c-3.1-3.5-5.4-7.7-6.9-12.7
		c-1.5-5-2.2-10.7-2.2-17c0-5.5,0.8-10.7,2.4-15.6c1.6-4.9,3.9-9.2,6.9-12.9c3-3.7,6.8-6.7,11.2-8.9c4.4-2.2,9.4-3.3,15.1-3.3
		c5.5,0,10.3,0.9,14.5,2.6c4.2,1.7,7.8,4.1,10.6,7.3c2.9,3.1,5.1,7,6.6,11.5C1303.1,152.1,1303.9,157.2,1303.9,162.7z M1289.8,160.8
		c0.2-3.5-0.2-6.7-1-9.6c-0.8-2.9-2.1-5.4-3.9-7.4c-1.7-2.1-3.9-3.7-6.5-4.9c-2.6-1.2-5.6-1.8-9-1.8c-3,0-5.7,0.6-8.1,1.7
		c-2.4,1.1-4.6,2.8-6.3,4.8c-1.8,2.1-3.2,4.6-4.3,7.5c-1.1,2.9-1.8,6.1-2,9.6H1289.8z"/>
	<linearGradient id="SVGID_34_" gradientUnits="userSpaceOnUse" x1="1446.8489" y1="95.8187" x2="1446.8489" y2="206.9571">
		<stop  offset="0" style="stop-color:#FFFFFF"/>
		<stop  offset="0.2111" style="stop-color:#878787"/>
		<stop  offset="0.5188" style="stop-color:#FFFFFF"/>
		<stop  offset="0.5974" style="stop-color:#000000"/>
		<stop  offset="0.7718" style="stop-color:#C6C6C6"/>
		<stop  offset="1" style="stop-color:#FFFFFF"/>
	</linearGradient>
	<path class="st33" d="M1480.3,165.5c0,6.5-0.9,12.3-2.7,17.4c-1.8,5.1-4.3,9.5-7.6,13c-3.3,3.6-7.3,6.3-12,8.2
		c-4.7,1.9-10.1,2.8-16,2.8c-4.6,0-9.4-0.4-14.2-1.3s-9.6-2.3-14.4-4.2V95.8h13.6v30.3l-0.6,14.5c3.9-5.3,8.1-9,12.5-11.1
		c4.4-2.2,9.2-3.2,14.3-3.2c4.5,0,8.4,0.9,11.8,2.8c3.4,1.9,6.2,4.5,8.5,7.9c2.3,3.4,4,7.5,5.1,12.3
		C1479.7,154.2,1480.3,159.5,1480.3,165.5z M1466.4,166.1c0-4.1-0.3-7.9-0.9-11.3c-0.6-3.4-1.5-6.4-2.8-8.8c-1.3-2.4-3-4.4-5-5.7
		c-2-1.4-4.4-2.1-7.3-2.1c-1.7,0-3.5,0.3-5.2,0.8c-1.8,0.5-3.6,1.5-5.5,2.7c-1.9,1.3-3.9,3-6,5.1c-2.1,2.1-4.4,4.7-6.7,7.8v38
		c2.7,1,5.4,1.9,8.1,2.5c2.8,0.6,5.4,0.9,7.9,0.9c3.1,0,6.1-0.5,8.9-1.5c2.8-1,5.3-2.6,7.5-5c2.2-2.3,3.9-5.4,5.1-9.2
		C1465.8,176.5,1466.4,171.8,1466.4,166.1z"/>
	<linearGradient id="SVGID_35_" gradientUnits="userSpaceOnUse" x1="1532.6008" y1="126.3135" x2="1532.6008" y2="207.425">
		<stop  offset="0" style="stop-color:#FFFFFF"/>
		<stop  offset="0.2111" style="stop-color:#878787"/>
		<stop  offset="0.5188" style="stop-color:#FFFFFF"/>
		<stop  offset="0.5974" style="stop-color:#000000"/>
		<stop  offset="0.7718" style="stop-color:#C6C6C6"/>
		<stop  offset="1" style="stop-color:#FFFFFF"/>
	</linearGradient>
	<path class="st34" d="M1567.3,162.7c0,1.9,0,3.5-0.1,4.8c-0.1,1.3-0.1,2.5-0.2,3.7h-55c0,8,2.2,14.2,6.7,18.4
		c4.5,4.3,10.9,6.4,19.3,6.4c2.3,0,4.6-0.1,6.9-0.3c2.3-0.2,4.5-0.4,6.6-0.7c2.1-0.3,4.2-0.7,6.1-1.1s3.8-0.8,5.4-1.3v11.2
		c-3.7,1-7.9,1.9-12.5,2.5c-4.7,0.6-9.5,1-14.5,1c-6.7,0-12.5-0.9-17.3-2.7c-4.8-1.8-8.8-4.5-11.9-7.9c-3.1-3.5-5.4-7.7-6.9-12.7
		c-1.5-5-2.2-10.7-2.2-17c0-5.5,0.8-10.7,2.4-15.6c1.6-4.9,3.9-9.2,6.9-12.9c3-3.7,6.8-6.7,11.2-8.9c4.4-2.2,9.4-3.3,15.1-3.3
		c5.5,0,10.3,0.9,14.5,2.6c4.2,1.7,7.8,4.1,10.6,7.3c2.9,3.1,5.1,7,6.6,11.5C1566.6,152.1,1567.3,157.2,1567.3,162.7z M1553.2,160.8
		c0.2-3.5-0.2-6.7-1-9.6c-0.8-2.9-2.1-5.4-3.9-7.4c-1.7-2.1-3.9-3.7-6.5-4.9c-2.6-1.2-5.6-1.8-9-1.8c-3,0-5.7,0.6-8.1,1.7
		c-2.4,1.1-4.6,2.8-6.3,4.8c-1.8,2.1-3.2,4.6-4.3,7.5c-1.1,2.9-1.8,6.1-2,9.6H1553.2z"/>
	<linearGradient id="SVGID_36_" gradientUnits="userSpaceOnUse" x1="1620.8876" y1="126.3135" x2="1620.8876" y2="207.425">
		<stop  offset="0" style="stop-color:#FFFFFF"/>
		<stop  offset="0.2111" style="stop-color:#878787"/>
		<stop  offset="0.5188" style="stop-color:#FFFFFF"/>
		<stop  offset="0.5974" style="stop-color:#000000"/>
		<stop  offset="0.7718" style="stop-color:#C6C6C6"/>
		<stop  offset="1" style="stop-color:#FFFFFF"/>
	</linearGradient>
	<path class="st35" d="M1651,184.7c0,2.8-0.5,5.2-1.4,7.4c-0.9,2.2-2.2,4.1-3.8,5.8c-1.6,1.7-3.5,3.1-5.6,4.3
		c-2.1,1.2-4.4,2.2-6.8,3c-2.4,0.8-4.9,1.4-7.4,1.7c-2.5,0.4-5,0.5-7.5,0.5c-5.3,0-10.2-0.2-14.6-0.7c-4.4-0.5-8.8-1.2-13.1-2.3V192
		c4.6,1.3,9.1,2.3,13.6,3c4.5,0.7,9,1,13.5,1c6.5,0,11.3-0.9,14.4-2.7c3.1-1.8,4.7-4.3,4.7-7.6c0-1.4-0.2-2.7-0.7-3.8
		c-0.5-1.1-1.4-2.2-2.7-3.2c-1.3-1-3.3-2.1-6-3.2c-2.7-1.1-6.5-2.3-11.2-3.7c-3.5-1-6.8-2.2-9.8-3.5c-3-1.3-5.6-2.9-7.8-4.7
		c-2.2-1.8-3.9-4-5.1-6.4c-1.2-2.4-1.9-5.3-1.9-8.7c0-2.2,0.5-4.6,1.5-7.2c1-2.6,2.7-5,5.2-7.3c2.4-2.2,5.7-4.1,9.9-5.6
		c4.2-1.5,9.4-2.2,15.6-2.2c3.1,0,6.5,0.2,10.2,0.5c3.7,0.3,7.6,0.9,11.7,1.8v12.1c-4.3-1-8.3-1.8-12.1-2.3
		c-3.8-0.5-7.1-0.7-9.9-0.7c-3.4,0-6.2,0.3-8.5,0.8c-2.3,0.5-4.2,1.2-5.6,2.1c-1.4,0.9-2.5,2-3.1,3.2c-0.6,1.2-0.9,2.5-0.9,3.9
		s0.3,2.7,0.8,3.8c0.5,1.1,1.6,2.2,3,3.3c1.5,1.1,3.5,2.1,6.2,3.2c2.7,1.1,6.1,2.2,10.4,3.5c4.6,1.4,8.5,2.8,11.7,4.3
		c3.2,1.5,5.7,3.1,7.7,5c2,1.8,3.4,3.9,4.3,6.2C1650.6,179.1,1651,181.7,1651,184.7z"/>
	<linearGradient id="SVGID_37_" gradientUnits="userSpaceOnUse" x1="1704.6118" y1="102.682" x2="1704.6118" y2="207.1131">
		<stop  offset="0" style="stop-color:#FFFFFF"/>
		<stop  offset="0.2111" style="stop-color:#878787"/>
		<stop  offset="0.5188" style="stop-color:#FFFFFF"/>
		<stop  offset="0.5974" style="stop-color:#000000"/>
		<stop  offset="0.7718" style="stop-color:#C6C6C6"/>
		<stop  offset="1" style="stop-color:#FFFFFF"/>
	</linearGradient>
	<path class="st36" d="M1739.9,204.9c-3.1,0.8-6.2,1.3-9.5,1.7c-3.3,0.3-6.6,0.5-10,0.5c-9.8,0-17.2-2.2-22-6.7
		c-4.8-4.4-7.3-11.3-7.3-20.5v-40.9h-21.9v-11.4h21.9v-21.5l13.6-3.5v25h35.2v11.4h-35.2v39.8c0,5.6,1.5,9.8,4.5,12.6
		c3,2.8,7.4,4.2,13.2,4.2c2.5,0,5.2-0.2,8.2-0.6c3-0.4,6.1-1,9.3-1.8V204.9z"/>
	<linearGradient id="SVGID_38_" gradientUnits="userSpaceOnUse" x1="1884.344" y1="126.3135" x2="1884.344" y2="207.425">
		<stop  offset="0" style="stop-color:#FFFFFF"/>
		<stop  offset="0.2111" style="stop-color:#878787"/>
		<stop  offset="0.5188" style="stop-color:#FFFFFF"/>
		<stop  offset="0.5974" style="stop-color:#000000"/>
		<stop  offset="0.7718" style="stop-color:#C6C6C6"/>
		<stop  offset="1" style="stop-color:#FFFFFF"/>
	</linearGradient>
	<path class="st37" d="M1914.5,184.7c0,2.8-0.5,5.2-1.4,7.4c-0.9,2.2-2.2,4.1-3.8,5.8c-1.6,1.7-3.5,3.1-5.6,4.3
		c-2.1,1.2-4.4,2.2-6.8,3c-2.4,0.8-4.9,1.4-7.4,1.7c-2.5,0.4-5,0.5-7.5,0.5c-5.3,0-10.2-0.2-14.6-0.7c-4.4-0.5-8.8-1.2-13.1-2.3V192
		c4.6,1.3,9.1,2.3,13.6,3c4.5,0.7,9,1,13.5,1c6.5,0,11.3-0.9,14.4-2.7c3.1-1.8,4.7-4.3,4.7-7.6c0-1.4-0.2-2.7-0.7-3.8
		c-0.5-1.1-1.4-2.2-2.7-3.2c-1.3-1-3.3-2.1-6-3.2c-2.7-1.1-6.5-2.3-11.2-3.7c-3.5-1-6.8-2.2-9.8-3.5c-3-1.3-5.6-2.9-7.8-4.7
		c-2.2-1.8-3.9-4-5.1-6.4c-1.2-2.4-1.9-5.3-1.9-8.7c0-2.2,0.5-4.6,1.5-7.2c1-2.6,2.7-5,5.2-7.3c2.4-2.2,5.7-4.1,9.9-5.6
		c4.2-1.5,9.4-2.2,15.6-2.2c3.1,0,6.5,0.2,10.2,0.5c3.7,0.3,7.6,0.9,11.7,1.8v12.1c-4.3-1-8.3-1.8-12.1-2.3
		c-3.8-0.5-7.1-0.7-9.9-0.7c-3.4,0-6.2,0.3-8.5,0.8c-2.3,0.5-4.2,1.2-5.6,2.1c-1.4,0.9-2.5,2-3.1,3.2c-0.6,1.2-0.9,2.5-0.9,3.9
		s0.3,2.7,0.8,3.8c0.5,1.1,1.6,2.2,3,3.3c1.5,1.1,3.5,2.1,6.2,3.2c2.7,1.1,6.1,2.2,10.4,3.5c4.6,1.4,8.5,2.8,11.7,4.3
		c3.2,1.5,5.7,3.1,7.7,5c2,1.8,3.4,3.9,4.3,6.2C1914.1,179.1,1914.5,181.7,1914.5,184.7z"/>
	<linearGradient id="SVGID_39_" gradientUnits="userSpaceOnUse" x1="1971.7339" y1="126.3135" x2="1971.7339" y2="207.425">
		<stop  offset="0" style="stop-color:#FFFFFF"/>
		<stop  offset="0.2111" style="stop-color:#878787"/>
		<stop  offset="0.5188" style="stop-color:#FFFFFF"/>
		<stop  offset="0.5974" style="stop-color:#000000"/>
		<stop  offset="0.7718" style="stop-color:#C6C6C6"/>
		<stop  offset="1" style="stop-color:#FFFFFF"/>
	</linearGradient>
	<path class="st38" d="M2008.5,166.2c0,6.1-0.9,11.7-2.6,16.7s-4.2,9.4-7.4,13c-3.2,3.6-7.2,6.4-11.8,8.4c-4.6,2-9.9,3-15.8,3
		c-5.6,0-10.6-0.9-15.1-2.6c-4.4-1.7-8.2-4.3-11.3-7.7c-3.1-3.4-5.5-7.6-7.1-12.6c-1.6-5-2.5-10.7-2.5-17.2c0-6.1,0.9-11.6,2.6-16.7
		c1.7-5,4.2-9.3,7.4-12.9c3.2-3.6,7.1-6.4,11.8-8.4c4.6-2,9.9-3,15.8-3c5.6,0,10.6,0.9,15.1,2.6c4.4,1.7,8.2,4.3,11.3,7.6
		c3.1,3.4,5.5,7.5,7.1,12.5C2007.6,154.1,2008.5,159.8,2008.5,166.2z M1994.6,166.9c0-4.8-0.5-9.1-1.6-12.7c-1.1-3.6-2.6-6.6-4.6-9
		c-2-2.4-4.4-4.2-7.2-5.5c-2.8-1.2-6-1.8-9.5-1.8c-4.1,0-7.5,0.8-10.4,2.4c-2.9,1.6-5.3,3.7-7.1,6.4c-1.8,2.7-3.2,5.7-4.1,9.2
		s-1.3,7.2-1.3,11c0,4.8,0.5,9.1,1.6,12.7c1.1,3.6,2.6,6.7,4.6,9.1c2,2.4,4.4,4.2,7.2,5.5c2.8,1.2,6,1.8,9.5,1.8
		c4.1,0,7.5-0.8,10.4-2.4c2.9-1.6,5.3-3.7,7.1-6.4c1.8-2.7,3.2-5.7,4.1-9.2C1994.2,174.5,1994.6,170.8,1994.6,166.9z"/>
	<linearGradient id="SVGID_40_" gradientUnits="userSpaceOnUse" x1="2059.7476" y1="94.8828" x2="2059.7476" y2="206.0212">
		<stop  offset="0" style="stop-color:#FFFFFF"/>
		<stop  offset="0.2111" style="stop-color:#878787"/>
		<stop  offset="0.5188" style="stop-color:#FFFFFF"/>
		<stop  offset="0.5974" style="stop-color:#000000"/>
		<stop  offset="0.7718" style="stop-color:#C6C6C6"/>
		<stop  offset="1" style="stop-color:#FFFFFF"/>
	</linearGradient>
	<path class="st39" d="M2097.6,108.5c-7.1-1.5-13.3-2.3-18.4-2.3c-12.2,0-18.3,6.4-18.3,19.2v13.7h34.3v11.3h-34.3V206h-13.8v-55.6
		h-25.2v-11.3h25.2v-12.9c0-20.8,10.9-31.3,32.6-31.3c5.4,0,11.4,0.6,17.9,1.9V108.5z"/>
	<linearGradient id="SVGID_41_" gradientUnits="userSpaceOnUse" x1="2143.7058" y1="102.682" x2="2143.7058" y2="207.1131">
		<stop  offset="0" style="stop-color:#FFFFFF"/>
		<stop  offset="0.2111" style="stop-color:#878787"/>
		<stop  offset="0.5188" style="stop-color:#FFFFFF"/>
		<stop  offset="0.5974" style="stop-color:#000000"/>
		<stop  offset="0.7718" style="stop-color:#C6C6C6"/>
		<stop  offset="1" style="stop-color:#FFFFFF"/>
	</linearGradient>
	<path class="st40" d="M2179,204.9c-3.1,0.8-6.2,1.3-9.5,1.7c-3.3,0.3-6.6,0.5-10,0.5c-9.8,0-17.2-2.2-22-6.7
		c-4.8-4.4-7.3-11.3-7.3-20.5v-40.9h-21.9v-11.4h21.9v-21.5l13.6-3.5v25h35.2v11.4h-35.2v39.8c0,5.6,1.5,9.8,4.5,12.6
		c3,2.8,7.4,4.2,13.2,4.2c2.5,0,5.2-0.2,8.2-0.6c3-0.4,6.1-1,9.3-1.8V204.9z"/>
	<linearGradient id="SVGID_42_" gradientUnits="userSpaceOnUse" x1="2235.2292" y1="127.7174" x2="2235.2292" y2="206.0212">
		<stop  offset="0" style="stop-color:#FFFFFF"/>
		<stop  offset="0.2111" style="stop-color:#878787"/>
		<stop  offset="0.5188" style="stop-color:#FFFFFF"/>
		<stop  offset="0.5974" style="stop-color:#000000"/>
		<stop  offset="0.7718" style="stop-color:#C6C6C6"/>
		<stop  offset="1" style="stop-color:#FFFFFF"/>
	</linearGradient>
	<path class="st41" d="M2276.3,127.7l-11.4,78.3h-16.5l-11.3-32.8l-2.3-8l-2.6,8.4l-10.8,32.3h-16l-11.3-78.3h13.3l6.6,53.2
		l1.4,11.9l3.4-10.4l11.4-35.2h9.7l12.2,34.7l3.5,10.4l1.2-11l6.1-53.6H2276.3z"/>
	<linearGradient id="SVGID_43_" gradientUnits="userSpaceOnUse" x1="2321.7612" y1="126.3135" x2="2321.7612" y2="207.425">
		<stop  offset="0" style="stop-color:#FFFFFF"/>
		<stop  offset="0.2111" style="stop-color:#878787"/>
		<stop  offset="0.5188" style="stop-color:#FFFFFF"/>
		<stop  offset="0.5974" style="stop-color:#000000"/>
		<stop  offset="0.7718" style="stop-color:#C6C6C6"/>
		<stop  offset="1" style="stop-color:#FFFFFF"/>
	</linearGradient>
	<path class="st42" d="M2341.9,206l-0.3-10.5c-4.3,4.2-8.6,7.3-13,9.1c-4.4,1.9-9,2.8-13.8,2.8c-4.5,0-8.3-0.6-11.5-1.7
		c-3.2-1.1-5.8-2.7-7.8-4.7c-2.1-2-3.6-4.4-4.5-7.1c-1-2.7-1.4-5.6-1.4-8.8c0-7.9,2.9-14,8.8-18.4c5.8-4.4,14.5-6.7,25.9-6.7h16.2
		v-6.9c0-4.6-1.5-8.3-4.4-11.1c-3-2.8-7.5-4.2-13.6-4.2c-4.4,0-8.8,0.5-13.1,1.5c-4.3,1-8.7,2.4-13.3,4.2v-12.2
		c1.7-0.6,3.6-1.2,5.7-1.8c2.1-0.6,4.3-1.1,6.7-1.6c2.3-0.5,4.8-0.8,7.3-1.1c2.5-0.3,5.1-0.4,7.7-0.4c4.7,0,9,0.5,12.8,1.6
		c3.8,1,7,2.6,9.6,4.8c2.6,2.1,4.6,4.8,6,8c1.4,3.2,2.1,7,2.1,11.4v54H2341.9z M2340.4,170.4h-17.2c-3.4,0-6.3,0.3-8.7,1
		c-2.4,0.7-4.4,1.6-6,2.9c-1.6,1.2-2.7,2.7-3.5,4.5c-0.8,1.7-1.1,3.7-1.1,5.9c0,1.5,0.2,3,0.7,4.3c0.5,1.4,1.2,2.6,2.3,3.7
		c1,1.1,2.4,1.9,4.1,2.5c1.7,0.6,3.7,0.9,6.1,0.9c3.1,0,6.7-0.9,10.7-2.8c4-1.9,8.3-4.9,12.8-9V170.4z"/>
	<linearGradient id="SVGID_44_" gradientUnits="userSpaceOnUse" x1="2414.7827" y1="126.3135" x2="2414.7827" y2="206.0212">
		<stop  offset="0" style="stop-color:#FFFFFF"/>
		<stop  offset="0.2111" style="stop-color:#878787"/>
		<stop  offset="0.5188" style="stop-color:#FFFFFF"/>
		<stop  offset="0.5974" style="stop-color:#000000"/>
		<stop  offset="0.7718" style="stop-color:#C6C6C6"/>
		<stop  offset="1" style="stop-color:#FFFFFF"/>
	</linearGradient>
	<path class="st43" d="M2382.6,127.7h12.4l0.4,14.4c4.6-5.6,9.2-9.6,13.7-12.1c4.5-2.5,9-3.7,13.6-3.7c8.1,0,14.3,2.6,18.4,7.9
		c4.2,5.3,6.1,13.1,5.8,23.4h-13.7c0.2-6.9-0.8-11.8-3-14.9c-2.2-3.1-5.3-4.6-9.5-4.6c-1.8,0-3.7,0.3-5.5,1
		c-1.8,0.7-3.7,1.7-5.7,3.1c-1.9,1.4-4,3.3-6.2,5.5c-2.2,2.2-4.5,4.9-7,8.1V206h-13.7V127.7z"/>
	<linearGradient id="SVGID_45_" gradientUnits="userSpaceOnUse" x1="2498.6077" y1="126.3135" x2="2498.6077" y2="207.425">
		<stop  offset="0" style="stop-color:#FFFFFF"/>
		<stop  offset="0.2111" style="stop-color:#878787"/>
		<stop  offset="0.5188" style="stop-color:#FFFFFF"/>
		<stop  offset="0.5974" style="stop-color:#000000"/>
		<stop  offset="0.7718" style="stop-color:#C6C6C6"/>
		<stop  offset="1" style="stop-color:#FFFFFF"/>
	</linearGradient>
	<path class="st44" d="M2533.4,162.7c0,1.9,0,3.5-0.1,4.8c-0.1,1.3-0.1,2.5-0.2,3.7h-55c0,8,2.2,14.2,6.7,18.4
		c4.5,4.3,10.9,6.4,19.3,6.4c2.3,0,4.6-0.1,6.9-0.3c2.3-0.2,4.5-0.4,6.6-0.7c2.1-0.3,4.2-0.7,6.1-1.1c1.9-0.4,3.8-0.8,5.4-1.3v11.2
		c-3.7,1-7.9,1.9-12.5,2.5c-4.7,0.6-9.5,1-14.5,1c-6.7,0-12.5-0.9-17.3-2.7c-4.8-1.8-8.8-4.5-11.9-7.9c-3.1-3.5-5.4-7.7-6.9-12.7
		c-1.5-5-2.2-10.7-2.2-17c0-5.5,0.8-10.7,2.4-15.6c1.6-4.9,3.9-9.2,6.9-12.9c3-3.7,6.8-6.7,11.2-8.9c4.4-2.2,9.4-3.3,15.1-3.3
		c5.5,0,10.3,0.9,14.5,2.6c4.2,1.7,7.8,4.1,10.6,7.3c2.9,3.1,5.1,7,6.6,11.5C2532.6,152.1,2533.4,157.2,2533.4,162.7z M2519.2,160.8
		c0.2-3.5-0.2-6.7-1-9.6c-0.8-2.9-2.1-5.4-3.9-7.4c-1.7-2.1-3.9-3.7-6.5-4.9c-2.6-1.2-5.6-1.8-9-1.8c-3,0-5.7,0.6-8.1,1.7
		c-2.4,1.1-4.6,2.8-6.3,4.8c-1.8,2.1-3.2,4.6-4.3,7.5c-1.1,2.9-1.8,6.1-2,9.6H2519.2z"/>
	<linearGradient id="SVGID_46_" gradientUnits="userSpaceOnUse" x1="2674.7134" y1="126.3135" x2="2674.7134" y2="207.425">
		<stop  offset="0" style="stop-color:#FFFFFF"/>
		<stop  offset="0.2111" style="stop-color:#878787"/>
		<stop  offset="0.5188" style="stop-color:#FFFFFF"/>
		<stop  offset="0.5974" style="stop-color:#000000"/>
		<stop  offset="0.7718" style="stop-color:#C6C6C6"/>
		<stop  offset="1" style="stop-color:#FFFFFF"/>
	</linearGradient>
	<path class="st45" d="M2704.9,184.7c0,2.8-0.5,5.2-1.4,7.4c-0.9,2.2-2.2,4.1-3.8,5.8c-1.6,1.7-3.5,3.1-5.6,4.3
		c-2.1,1.2-4.4,2.2-6.8,3c-2.4,0.8-4.9,1.4-7.4,1.7c-2.5,0.4-5,0.5-7.5,0.5c-5.3,0-10.2-0.2-14.6-0.7c-4.4-0.5-8.8-1.2-13.1-2.3V192
		c4.6,1.3,9.1,2.3,13.6,3c4.5,0.7,9,1,13.5,1c6.5,0,11.3-0.9,14.4-2.7c3.1-1.8,4.7-4.3,4.7-7.6c0-1.4-0.2-2.7-0.7-3.8
		c-0.5-1.1-1.4-2.2-2.7-3.2c-1.3-1-3.3-2.1-6-3.2s-6.5-2.3-11.2-3.7c-3.5-1-6.8-2.2-9.8-3.5c-3-1.3-5.6-2.9-7.8-4.7
		c-2.2-1.8-3.9-4-5.1-6.4c-1.2-2.4-1.9-5.3-1.9-8.7c0-2.2,0.5-4.6,1.5-7.2c1-2.6,2.7-5,5.2-7.3c2.4-2.2,5.7-4.1,9.9-5.6
		c4.2-1.5,9.4-2.2,15.6-2.2c3.1,0,6.5,0.2,10.2,0.5c3.7,0.3,7.6,0.9,11.7,1.8v12.1c-4.3-1-8.3-1.8-12.1-2.3
		c-3.8-0.5-7.1-0.7-9.9-0.7c-3.4,0-6.2,0.3-8.5,0.8c-2.3,0.5-4.2,1.2-5.6,2.1c-1.4,0.9-2.5,2-3.1,3.2c-0.6,1.2-0.9,2.5-0.9,3.9
		s0.3,2.7,0.8,3.8c0.5,1.1,1.6,2.2,3,3.3c1.5,1.1,3.5,2.1,6.2,3.2c2.7,1.1,6.1,2.2,10.4,3.5c4.6,1.4,8.5,2.8,11.7,4.3
		c3.2,1.5,5.7,3.1,7.7,5c2,1.8,3.4,3.9,4.3,6.2C2704.4,179.1,2704.9,181.7,2704.9,184.7z"/>
	<linearGradient id="SVGID_47_" gradientUnits="userSpaceOnUse" x1="2762.103" y1="126.3135" x2="2762.103" y2="207.425">
		<stop  offset="0" style="stop-color:#FFFFFF"/>
		<stop  offset="0.2111" style="stop-color:#878787"/>
		<stop  offset="0.5188" style="stop-color:#FFFFFF"/>
		<stop  offset="0.5974" style="stop-color:#000000"/>
		<stop  offset="0.7718" style="stop-color:#C6C6C6"/>
		<stop  offset="1" style="stop-color:#FFFFFF"/>
	</linearGradient>
	<path class="st46" d="M2798.8,166.2c0,6.1-0.9,11.7-2.6,16.7s-4.2,9.4-7.4,13c-3.2,3.6-7.2,6.4-11.8,8.4c-4.6,2-9.9,3-15.8,3
		c-5.6,0-10.6-0.9-15.1-2.6c-4.4-1.7-8.2-4.3-11.3-7.7c-3.1-3.4-5.5-7.6-7.1-12.6c-1.6-5-2.5-10.7-2.5-17.2c0-6.1,0.9-11.6,2.6-16.7
		c1.7-5,4.2-9.3,7.4-12.9c3.2-3.6,7.1-6.4,11.8-8.4c4.6-2,9.9-3,15.8-3c5.6,0,10.6,0.9,15.1,2.6c4.4,1.7,8.2,4.3,11.3,7.6
		c3.1,3.4,5.5,7.5,7.1,12.5C2798,154.1,2798.8,159.8,2798.8,166.2z M2785,166.9c0-4.8-0.5-9.1-1.6-12.7c-1.1-3.6-2.6-6.6-4.6-9
		c-2-2.4-4.4-4.2-7.2-5.5c-2.8-1.2-6-1.8-9.5-1.8c-4.1,0-7.5,0.8-10.4,2.4c-2.9,1.6-5.3,3.7-7.1,6.4c-1.8,2.7-3.2,5.7-4.1,9.2
		s-1.3,7.2-1.3,11c0,4.8,0.5,9.1,1.6,12.7c1.1,3.6,2.6,6.7,4.6,9.1c2,2.4,4.4,4.2,7.2,5.5c2.8,1.2,6,1.8,9.5,1.8
		c4.1,0,7.5-0.8,10.4-2.4c2.9-1.6,5.3-3.7,7.1-6.4c1.8-2.7,3.2-5.7,4.1-9.2C2784.5,174.5,2785,170.8,2785,166.9z"/>
	<linearGradient id="SVGID_48_" gradientUnits="userSpaceOnUse" x1="2850.8188" y1="95.8187" x2="2850.8188" y2="206.0212">
		<stop  offset="0" style="stop-color:#FFFFFF"/>
		<stop  offset="0.2111" style="stop-color:#878787"/>
		<stop  offset="0.5188" style="stop-color:#FFFFFF"/>
		<stop  offset="0.5974" style="stop-color:#000000"/>
		<stop  offset="0.7718" style="stop-color:#C6C6C6"/>
		<stop  offset="1" style="stop-color:#FFFFFF"/>
	</linearGradient>
	<path class="st47" d="M2845.2,107H2822V95.8h36.9v98.9h23.3V206h-62.8v-11.3h25.7V107z"/>
	<linearGradient id="SVGID_49_" gradientUnits="userSpaceOnUse" x1="2937.7798" y1="127.7174" x2="2937.7798" y2="207.425">
		<stop  offset="0" style="stop-color:#FFFFFF"/>
		<stop  offset="0.2111" style="stop-color:#878787"/>
		<stop  offset="0.5188" style="stop-color:#FFFFFF"/>
		<stop  offset="0.5974" style="stop-color:#000000"/>
		<stop  offset="0.7718" style="stop-color:#C6C6C6"/>
		<stop  offset="1" style="stop-color:#FFFFFF"/>
	</linearGradient>
	<path class="st48" d="M2969.2,206h-12.2l-0.5-12.6c-2.3,2.7-4.6,5-6.7,6.7s-4.2,3.2-6.3,4.3c-2.1,1.1-4.2,1.9-6.3,2.3
		c-2.1,0.4-4.3,0.7-6.7,0.7c-8.1,0-14.1-2.4-18.3-7.1c-4.1-4.7-6.2-11.9-6.2-21.4v-51.2h13.6v50.1c0,12,4.5,18,13.6,18
		c1.7,0,3.3-0.2,4.9-0.7c1.6-0.5,3.2-1.4,5-2.6c1.7-1.2,3.6-2.9,5.6-5c2-2.1,4.3-4.7,6.7-7.9v-51.9h13.6V206z"/>
	<linearGradient id="SVGID_50_" gradientUnits="userSpaceOnUse" x1="3021.894" y1="102.682" x2="3021.894" y2="207.1131">
		<stop  offset="0" style="stop-color:#FFFFFF"/>
		<stop  offset="0.2111" style="stop-color:#878787"/>
		<stop  offset="0.5188" style="stop-color:#FFFFFF"/>
		<stop  offset="0.5974" style="stop-color:#000000"/>
		<stop  offset="0.7718" style="stop-color:#C6C6C6"/>
		<stop  offset="1" style="stop-color:#FFFFFF"/>
	</linearGradient>
	<path class="st49" d="M3057.2,204.9c-3.1,0.8-6.2,1.3-9.5,1.7c-3.3,0.3-6.6,0.5-10,0.5c-9.8,0-17.2-2.2-22-6.7
		c-4.8-4.4-7.3-11.3-7.3-20.5v-40.9h-21.9v-11.4h21.9v-21.5l13.6-3.5v25h35.2v11.4h-35.2v39.8c0,5.6,1.5,9.8,4.5,12.6
		c3,2.8,7.4,4.2,13.2,4.2c2.5,0,5.2-0.2,8.2-0.6c3-0.4,6.1-1,9.3-1.8V204.9z"/>
	<linearGradient id="SVGID_51_" gradientUnits="userSpaceOnUse" x1="3114.2754" y1="94.8828" x2="3114.2754" y2="206.0212">
		<stop  offset="0" style="stop-color:#FFFFFF"/>
		<stop  offset="0.2111" style="stop-color:#878787"/>
		<stop  offset="0.5188" style="stop-color:#FFFFFF"/>
		<stop  offset="0.5974" style="stop-color:#000000"/>
		<stop  offset="0.7718" style="stop-color:#C6C6C6"/>
		<stop  offset="1" style="stop-color:#FFFFFF"/>
	</linearGradient>
	<path class="st50" d="M3108.6,138.9h-23.2v-11.2h36.9v67h23.3V206h-62.8v-11.3h25.7V138.9z M3113.4,94.9c1.5,0,2.9,0.3,4.2,0.8
		c1.3,0.5,2.4,1.3,3.4,2.3c1,1,1.7,2.1,2.3,3.4c0.5,1.3,0.8,2.7,0.8,4.2c0,1.5-0.3,2.8-0.8,4.1c-0.5,1.3-1.3,2.4-2.3,3.4
		c-1,1-2.1,1.8-3.4,2.3c-1.3,0.5-2.7,0.8-4.2,0.8c-1.5,0-2.9-0.3-4.2-0.8c-1.3-0.5-2.4-1.3-3.4-2.3c-1-1-1.7-2.1-2.3-3.4
		c-0.5-1.3-0.8-2.7-0.8-4.1c0-1.5,0.3-2.9,0.8-4.2c0.5-1.3,1.3-2.4,2.3-3.4c1-1,2.1-1.8,3.4-2.3
		C3110.5,95.2,3111.9,94.9,3113.4,94.9z"/>
	<linearGradient id="SVGID_52_" gradientUnits="userSpaceOnUse" x1="3201.1973" y1="126.3135" x2="3201.1973" y2="207.425">
		<stop  offset="0" style="stop-color:#FFFFFF"/>
		<stop  offset="0.2111" style="stop-color:#878787"/>
		<stop  offset="0.5188" style="stop-color:#FFFFFF"/>
		<stop  offset="0.5974" style="stop-color:#000000"/>
		<stop  offset="0.7718" style="stop-color:#C6C6C6"/>
		<stop  offset="1" style="stop-color:#FFFFFF"/>
	</linearGradient>
	<path class="st51" d="M3237.9,166.2c0,6.1-0.9,11.7-2.6,16.7s-4.2,9.4-7.4,13c-3.2,3.6-7.2,6.4-11.8,8.4c-4.6,2-9.9,3-15.8,3
		c-5.6,0-10.6-0.9-15.1-2.6c-4.4-1.7-8.2-4.3-11.3-7.7c-3.1-3.4-5.5-7.6-7.1-12.6c-1.6-5-2.5-10.7-2.5-17.2c0-6.1,0.9-11.6,2.6-16.7
		c1.7-5,4.2-9.3,7.4-12.9c3.2-3.6,7.1-6.4,11.8-8.4c4.6-2,9.9-3,15.8-3c5.6,0,10.6,0.9,15.1,2.6c4.4,1.7,8.2,4.3,11.3,7.6
		c3.1,3.4,5.5,7.5,7.1,12.5C3237.1,154.1,3237.9,159.8,3237.9,166.2z M3224,166.9c0-4.8-0.5-9.1-1.6-12.7c-1.1-3.6-2.6-6.6-4.6-9
		c-2-2.4-4.4-4.2-7.2-5.5c-2.8-1.2-6-1.8-9.5-1.8c-4.1,0-7.5,0.8-10.4,2.4c-2.9,1.6-5.3,3.7-7.1,6.4c-1.8,2.7-3.2,5.7-4.1,9.2
		s-1.3,7.2-1.3,11c0,4.8,0.5,9.1,1.6,12.7c1.1,3.6,2.6,6.7,4.6,9.1c2,2.4,4.4,4.2,7.2,5.5c2.8,1.2,6,1.8,9.5,1.8
		c4.1,0,7.5-0.8,10.4-2.4c2.9-1.6,5.3-3.7,7.1-6.4c1.8-2.7,3.2-5.7,4.1-9.2C3223.6,174.5,3224,170.8,3224,166.9z"/>
	<linearGradient id="SVGID_53_" gradientUnits="userSpaceOnUse" x1="3289.0549" y1="126.3135" x2="3289.0549" y2="206.0212">
		<stop  offset="0" style="stop-color:#FFFFFF"/>
		<stop  offset="0.2111" style="stop-color:#878787"/>
		<stop  offset="0.5188" style="stop-color:#FFFFFF"/>
		<stop  offset="0.5974" style="stop-color:#000000"/>
		<stop  offset="0.7718" style="stop-color:#C6C6C6"/>
		<stop  offset="1" style="stop-color:#FFFFFF"/>
	</linearGradient>
	<path class="st52" d="M3257.6,127.7h12.1l0.5,12.6c2.3-2.7,4.5-5,6.6-6.7c2.1-1.8,4.2-3.2,6.3-4.3c2.1-1.1,4.1-1.9,6.3-2.3
		c2.1-0.4,4.3-0.7,6.6-0.7c8.1,0,14.2,2.4,18.3,7.1c4.1,4.8,6.2,11.9,6.2,21.5V206H3307v-50c0-6.1-1.1-10.7-3.4-13.6
		c-2.3-2.9-5.7-4.4-10.2-4.4c-1.7,0-3.3,0.2-4.9,0.7c-1.6,0.5-3.2,1.4-5,2.6c-1.7,1.2-3.6,2.9-5.6,5c-2,2.1-4.3,4.7-6.7,7.8V206
		h-13.6V127.7z"/>
	<linearGradient id="SVGID_54_" gradientUnits="userSpaceOnUse" x1="3377.2637" y1="126.3135" x2="3377.2637" y2="207.425">
		<stop  offset="0" style="stop-color:#FFFFFF"/>
		<stop  offset="0.2111" style="stop-color:#878787"/>
		<stop  offset="0.5188" style="stop-color:#FFFFFF"/>
		<stop  offset="0.5974" style="stop-color:#000000"/>
		<stop  offset="0.7718" style="stop-color:#C6C6C6"/>
		<stop  offset="1" style="stop-color:#FFFFFF"/>
	</linearGradient>
	<path class="st53" d="M3407.4,184.7c0,2.8-0.5,5.2-1.4,7.4c-0.9,2.2-2.2,4.1-3.8,5.8c-1.6,1.7-3.5,3.1-5.6,4.3
		c-2.1,1.2-4.4,2.2-6.8,3c-2.4,0.8-4.9,1.4-7.4,1.7c-2.5,0.4-5,0.5-7.5,0.5c-5.3,0-10.2-0.2-14.6-0.7c-4.4-0.5-8.8-1.2-13.1-2.3V192
		c4.6,1.3,9.1,2.3,13.6,3c4.5,0.7,9,1,13.5,1c6.5,0,11.3-0.9,14.4-2.7c3.1-1.8,4.7-4.3,4.7-7.6c0-1.4-0.2-2.7-0.7-3.8
		c-0.5-1.1-1.4-2.2-2.7-3.2c-1.3-1-3.3-2.1-6-3.2s-6.5-2.3-11.2-3.7c-3.5-1-6.8-2.2-9.8-3.5c-3-1.3-5.6-2.9-7.8-4.7
		c-2.2-1.8-3.9-4-5.1-6.4c-1.2-2.4-1.9-5.3-1.9-8.7c0-2.2,0.5-4.6,1.5-7.2c1-2.6,2.7-5,5.2-7.3c2.4-2.2,5.7-4.1,9.9-5.6
		c4.2-1.5,9.4-2.2,15.6-2.2c3.1,0,6.5,0.2,10.2,0.5c3.7,0.3,7.6,0.9,11.7,1.8v12.1c-4.3-1-8.3-1.8-12.1-2.3
		c-3.8-0.5-7.1-0.7-9.9-0.7c-3.4,0-6.2,0.3-8.5,0.8c-2.3,0.5-4.2,1.2-5.6,2.1c-1.4,0.9-2.5,2-3.1,3.2c-0.6,1.2-0.9,2.5-0.9,3.9
		s0.3,2.7,0.8,3.8c0.5,1.1,1.6,2.2,3,3.3c1.5,1.1,3.5,2.1,6.2,3.2c2.7,1.1,6.1,2.2,10.4,3.5c4.6,1.4,8.5,2.8,11.7,4.3
		c3.2,1.5,5.7,3.1,7.7,5c2,1.8,3.4,3.9,4.3,6.2C3407,179.1,3407.4,181.7,3407.4,184.7z"/>
	<linearGradient id="SVGID_55_" gradientUnits="userSpaceOnUse" x1="1093.5458" y1="295.7592" x2="1093.5458" y2="397.6945">
		<stop  offset="0" style="stop-color:#FFFFFF"/>
		<stop  offset="0.2111" style="stop-color:#878787"/>
		<stop  offset="0.5188" style="stop-color:#FFFFFF"/>
		<stop  offset="0.5974" style="stop-color:#000000"/>
		<stop  offset="0.7718" style="stop-color:#C6C6C6"/>
		<stop  offset="1" style="stop-color:#FFFFFF"/>
	</linearGradient>
	<path class="st54" d="M1133.9,295.8l-6.9,101.9h-18l-12.6-36.3l-3.5-11.6l-3.7,12.6l-11.7,35.3h-17.4l-7-101.9h13.1l4,69.3l1.2,19
		l4.9-16.1l12.3-37.8h9.6l14.2,40.6l4.8,13.4l0.3-14l4.1-74.3H1133.9z"/>
	<linearGradient id="SVGID_56_" gradientUnits="userSpaceOnUse" x1="1182.2615" y1="286.5561" x2="1182.2615" y2="397.6945">
		<stop  offset="0" style="stop-color:#FFFFFF"/>
		<stop  offset="0.2111" style="stop-color:#878787"/>
		<stop  offset="0.5188" style="stop-color:#FFFFFF"/>
		<stop  offset="0.5974" style="stop-color:#000000"/>
		<stop  offset="0.7718" style="stop-color:#C6C6C6"/>
		<stop  offset="1" style="stop-color:#FFFFFF"/>
	</linearGradient>
	<path class="st55" d="M1176.6,330.6h-23.2v-11.2h36.9v67h23.3v11.3h-62.8v-11.3h25.7V330.6z M1181.4,286.6c1.5,0,2.9,0.3,4.2,0.8
		c1.3,0.5,2.4,1.3,3.4,2.3c1,1,1.7,2.1,2.3,3.4c0.5,1.3,0.8,2.7,0.8,4.2c0,1.5-0.3,2.8-0.8,4.1c-0.5,1.3-1.3,2.4-2.3,3.4
		c-1,1-2.1,1.8-3.4,2.3c-1.3,0.5-2.7,0.8-4.2,0.8c-1.5,0-2.9-0.3-4.2-0.8c-1.3-0.5-2.4-1.3-3.4-2.3c-1-1-1.7-2.1-2.3-3.4
		c-0.5-1.3-0.8-2.7-0.8-4.1c0-1.5,0.3-2.9,0.8-4.2c0.5-1.3,1.3-2.4,2.3-3.4c1-1,2.1-1.8,3.4-2.3
		C1178.5,286.8,1179.9,286.6,1181.4,286.6z"/>
	<linearGradient id="SVGID_57_" gradientUnits="userSpaceOnUse" x1="1265.5178" y1="294.3553" x2="1265.5178" y2="398.7864">
		<stop  offset="0" style="stop-color:#FFFFFF"/>
		<stop  offset="0.2111" style="stop-color:#878787"/>
		<stop  offset="0.5188" style="stop-color:#FFFFFF"/>
		<stop  offset="0.5974" style="stop-color:#000000"/>
		<stop  offset="0.7718" style="stop-color:#C6C6C6"/>
		<stop  offset="1" style="stop-color:#FFFFFF"/>
	</linearGradient>
	<path class="st56" d="M1300.8,396.6c-3.1,0.8-6.2,1.3-9.5,1.7c-3.3,0.3-6.6,0.5-10,0.5c-9.8,0-17.2-2.2-22-6.7s-7.3-11.3-7.3-20.5
		v-40.9h-21.9v-11.4h21.9v-21.5l13.6-3.5v25h35.2v11.4h-35.2v39.8c0,5.6,1.5,9.8,4.5,12.6c3,2.8,7.4,4.2,13.2,4.2
		c2.5,0,5.2-0.2,8.2-0.6c3-0.4,6.1-1,9.3-1.8V396.6z"/>
	<linearGradient id="SVGID_58_" gradientUnits="userSpaceOnUse" x1="1357.0413" y1="287.492" x2="1357.0413" y2="397.6945">
		<stop  offset="0" style="stop-color:#FFFFFF"/>
		<stop  offset="0.2111" style="stop-color:#878787"/>
		<stop  offset="0.5188" style="stop-color:#FFFFFF"/>
		<stop  offset="0.5974" style="stop-color:#000000"/>
		<stop  offset="0.7718" style="stop-color:#C6C6C6"/>
		<stop  offset="1" style="stop-color:#FFFFFF"/>
	</linearGradient>
	<path class="st57" d="M1388.5,397.7h-13.6v-50c0-6-1.1-10.5-3.4-13.5c-2.3-3-5.5-4.5-9.7-4.5c-1.8,0-3.5,0.2-5.1,0.7
		c-1.6,0.5-3.2,1.4-5,2.6c-1.7,1.2-3.6,2.9-5.6,5c-2,2.1-4.4,4.7-7,7.8v51.9h-13.6V287.5h13.6v31.9l-0.5,12.3
		c2.1-2.5,4.2-4.7,6.3-6.4c2.1-1.7,4.1-3.2,6.2-4.3c2.1-1.1,4.1-1.9,6.3-2.3c2.1-0.5,4.3-0.7,6.6-0.7c7.8,0,13.8,2.4,18.1,7.1
		c4.3,4.8,6.4,11.9,6.4,21.5V397.7z"/>
	<linearGradient id="SVGID_59_" gradientUnits="userSpaceOnUse" x1="1528.9742" y1="294.3553" x2="1528.9742" y2="398.7864">
		<stop  offset="0" style="stop-color:#FFFFFF"/>
		<stop  offset="0.2111" style="stop-color:#878787"/>
		<stop  offset="0.5188" style="stop-color:#FFFFFF"/>
		<stop  offset="0.5974" style="stop-color:#000000"/>
		<stop  offset="0.7718" style="stop-color:#C6C6C6"/>
		<stop  offset="1" style="stop-color:#FFFFFF"/>
	</linearGradient>
	<path class="st58" d="M1564.3,396.6c-3.1,0.8-6.2,1.3-9.5,1.7c-3.3,0.3-6.6,0.5-10,0.5c-9.8,0-17.2-2.2-22-6.7s-7.3-11.3-7.3-20.5
		v-40.9h-21.9v-11.4h21.9v-21.5l13.6-3.5v25h35.2v11.4h-35.2v39.8c0,5.6,1.5,9.8,4.5,12.6c3,2.8,7.4,4.2,13.2,4.2
		c2.5,0,5.2-0.2,8.2-0.6c3-0.4,6.1-1,9.3-1.8V396.6z"/>
	<linearGradient id="SVGID_60_" gradientUnits="userSpaceOnUse" x1="1620.4977" y1="287.492" x2="1620.4977" y2="397.6945">
		<stop  offset="0" style="stop-color:#FFFFFF"/>
		<stop  offset="0.2111" style="stop-color:#878787"/>
		<stop  offset="0.5188" style="stop-color:#FFFFFF"/>
		<stop  offset="0.5974" style="stop-color:#000000"/>
		<stop  offset="0.7718" style="stop-color:#C6C6C6"/>
		<stop  offset="1" style="stop-color:#FFFFFF"/>
	</linearGradient>
	<path class="st59" d="M1652,397.7h-13.6v-50c0-6-1.1-10.5-3.4-13.5c-2.3-3-5.5-4.5-9.7-4.5c-1.8,0-3.5,0.2-5.1,0.7
		c-1.6,0.5-3.2,1.4-5,2.6c-1.7,1.2-3.6,2.9-5.6,5c-2,2.1-4.4,4.7-7,7.8v51.9H1589V287.5h13.6v31.9l-0.5,12.3
		c2.1-2.5,4.2-4.7,6.3-6.4c2.1-1.7,4.1-3.2,6.2-4.3c2.1-1.1,4.1-1.9,6.3-2.3c2.1-0.5,4.3-0.7,6.6-0.7c7.8,0,13.8,2.4,18.1,7.1
		c4.3,4.8,6.4,11.9,6.4,21.5V397.7z"/>
	<linearGradient id="SVGID_61_" gradientUnits="userSpaceOnUse" x1="1708.2385" y1="317.9868" x2="1708.2385" y2="399.0984">
		<stop  offset="0" style="stop-color:#FFFFFF"/>
		<stop  offset="0.2111" style="stop-color:#878787"/>
		<stop  offset="0.5188" style="stop-color:#FFFFFF"/>
		<stop  offset="0.5974" style="stop-color:#000000"/>
		<stop  offset="0.7718" style="stop-color:#C6C6C6"/>
		<stop  offset="1" style="stop-color:#FFFFFF"/>
	</linearGradient>
	<path class="st60" d="M1743,354.4c0,1.9,0,3.5-0.1,4.8c-0.1,1.3-0.1,2.5-0.2,3.7h-55c0,8,2.2,14.2,6.7,18.4
		c4.5,4.3,10.9,6.4,19.3,6.4c2.3,0,4.6-0.1,6.9-0.3c2.3-0.2,4.5-0.4,6.6-0.7c2.1-0.3,4.2-0.7,6.1-1.1c1.9-0.4,3.8-0.8,5.4-1.3v11.2
		c-3.7,1-7.9,1.9-12.5,2.5c-4.7,0.6-9.5,1-14.5,1c-6.7,0-12.5-0.9-17.3-2.7s-8.8-4.5-11.9-7.9c-3.1-3.5-5.4-7.7-6.9-12.7
		c-1.5-5-2.2-10.7-2.2-17c0-5.5,0.8-10.7,2.4-15.6c1.6-4.9,3.9-9.2,6.9-12.9c3-3.7,6.8-6.7,11.2-8.9c4.4-2.2,9.4-3.3,15.1-3.3
		c5.5,0,10.3,0.9,14.5,2.6s7.8,4.1,10.6,7.3c2.9,3.1,5.1,7,6.6,11.5C1742.2,343.8,1743,348.8,1743,354.4z M1728.9,352.5
		c0.2-3.5-0.2-6.7-1-9.6c-0.8-2.9-2.1-5.4-3.9-7.4c-1.7-2.1-3.9-3.7-6.5-4.9c-2.6-1.2-5.6-1.8-9-1.8c-3,0-5.7,0.6-8.1,1.7
		c-2.4,1.1-4.6,2.8-6.3,4.8c-1.8,2.1-3.2,4.6-4.3,7.5c-1.1,2.9-1.8,6.1-2,9.6H1728.9z"/>
	<linearGradient id="SVGID_62_" gradientUnits="userSpaceOnUse" x1="1885.9429" y1="287.492" x2="1885.9429" y2="398.6304">
		<stop  offset="0" style="stop-color:#FFFFFF"/>
		<stop  offset="0.2111" style="stop-color:#878787"/>
		<stop  offset="0.5188" style="stop-color:#FFFFFF"/>
		<stop  offset="0.5974" style="stop-color:#000000"/>
		<stop  offset="0.7718" style="stop-color:#C6C6C6"/>
		<stop  offset="1" style="stop-color:#FFFFFF"/>
	</linearGradient>
	<path class="st61" d="M1919.4,357.1c0,6.5-0.9,12.3-2.7,17.4c-1.8,5.1-4.3,9.5-7.6,13c-3.3,3.6-7.3,6.3-12,8.2
		c-4.7,1.9-10.1,2.8-16,2.8c-4.6,0-9.4-0.4-14.2-1.3c-4.8-0.9-9.6-2.3-14.4-4.2V287.5h13.6v30.3l-0.6,14.5c3.9-5.3,8.1-9,12.5-11.1
		c4.4-2.2,9.2-3.2,14.3-3.2c4.5,0,8.4,0.9,11.8,2.8c3.4,1.9,6.2,4.5,8.5,7.9c2.3,3.4,4,7.5,5.1,12.3
		C1918.8,345.8,1919.4,351.2,1919.4,357.1z M1905.5,357.8c0-4.1-0.3-7.9-0.9-11.3c-0.6-3.4-1.5-6.4-2.8-8.8c-1.3-2.4-3-4.4-5-5.7
		c-2-1.4-4.4-2.1-7.3-2.1c-1.7,0-3.5,0.3-5.2,0.8c-1.8,0.5-3.6,1.5-5.5,2.7c-1.9,1.3-3.9,3-6,5.1c-2.1,2.1-4.4,4.7-6.7,7.8v38
		c2.7,1,5.4,1.9,8.1,2.5c2.8,0.6,5.4,0.9,7.9,0.9c3.1,0,6.1-0.5,8.9-1.5c2.8-1,5.3-2.6,7.5-5c2.2-2.3,3.9-5.4,5.1-9.2
		C1904.9,368.2,1905.5,363.4,1905.5,357.8z"/>
	<linearGradient id="SVGID_63_" gradientUnits="userSpaceOnUse" x1="1971.6949" y1="317.9868" x2="1971.6949" y2="399.0984">
		<stop  offset="0" style="stop-color:#FFFFFF"/>
		<stop  offset="0.2111" style="stop-color:#878787"/>
		<stop  offset="0.5188" style="stop-color:#FFFFFF"/>
		<stop  offset="0.5974" style="stop-color:#000000"/>
		<stop  offset="0.7718" style="stop-color:#C6C6C6"/>
		<stop  offset="1" style="stop-color:#FFFFFF"/>
	</linearGradient>
	<path class="st62" d="M2006.4,354.4c0,1.9,0,3.5-0.1,4.8c-0.1,1.3-0.1,2.5-0.2,3.7h-55c0,8,2.2,14.2,6.7,18.4
		c4.5,4.3,10.9,6.4,19.3,6.4c2.3,0,4.6-0.1,6.9-0.3c2.3-0.2,4.5-0.4,6.6-0.7c2.1-0.3,4.2-0.7,6.1-1.1c1.9-0.4,3.8-0.8,5.4-1.3v11.2
		c-3.7,1-7.9,1.9-12.5,2.5c-4.7,0.6-9.5,1-14.5,1c-6.7,0-12.5-0.9-17.3-2.7s-8.8-4.5-11.9-7.9c-3.1-3.5-5.4-7.7-6.9-12.7
		c-1.5-5-2.2-10.7-2.2-17c0-5.5,0.8-10.7,2.4-15.6c1.6-4.9,3.9-9.2,6.9-12.9c3-3.7,6.8-6.7,11.2-8.9c4.4-2.2,9.4-3.3,15.1-3.3
		c5.5,0,10.3,0.9,14.5,2.6s7.8,4.1,10.6,7.3c2.9,3.1,5.1,7,6.6,11.5C2005.7,343.8,2006.4,348.8,2006.4,354.4z M1992.3,352.5
		c0.2-3.5-0.2-6.7-1-9.6c-0.8-2.9-2.1-5.4-3.9-7.4c-1.7-2.1-3.9-3.7-6.5-4.9c-2.6-1.2-5.6-1.8-9-1.8c-3,0-5.7,0.6-8.1,1.7
		c-2.4,1.1-4.6,2.8-6.3,4.8c-1.8,2.1-3.2,4.6-4.3,7.5c-1.1,2.9-1.8,6.1-2,9.6H1992.3z"/>
	<linearGradient id="SVGID_64_" gradientUnits="userSpaceOnUse" x1="2059.9817" y1="317.9868" x2="2059.9817" y2="399.0984">
		<stop  offset="0" style="stop-color:#FFFFFF"/>
		<stop  offset="0.2111" style="stop-color:#878787"/>
		<stop  offset="0.5188" style="stop-color:#FFFFFF"/>
		<stop  offset="0.5974" style="stop-color:#000000"/>
		<stop  offset="0.7718" style="stop-color:#C6C6C6"/>
		<stop  offset="1" style="stop-color:#FFFFFF"/>
	</linearGradient>
	<path class="st63" d="M2090.1,376.3c0,2.8-0.5,5.2-1.4,7.4c-0.9,2.2-2.2,4.1-3.8,5.8c-1.6,1.7-3.5,3.1-5.6,4.3
		c-2.1,1.2-4.4,2.2-6.8,3c-2.4,0.8-4.9,1.4-7.4,1.7c-2.5,0.4-5,0.5-7.5,0.5c-5.3,0-10.2-0.2-14.6-0.7c-4.4-0.5-8.8-1.2-13.1-2.3
		v-12.5c4.6,1.3,9.1,2.3,13.6,3c4.5,0.7,9,1,13.5,1c6.5,0,11.3-0.9,14.4-2.7c3.1-1.8,4.7-4.3,4.7-7.6c0-1.4-0.2-2.7-0.7-3.8
		c-0.5-1.1-1.4-2.2-2.7-3.2c-1.3-1-3.3-2.1-6-3.2c-2.7-1.1-6.5-2.3-11.2-3.7c-3.5-1-6.8-2.2-9.8-3.5c-3-1.3-5.6-2.9-7.8-4.7
		c-2.2-1.8-3.9-3.9-5.1-6.4c-1.2-2.4-1.9-5.3-1.9-8.7c0-2.2,0.5-4.6,1.5-7.2c1-2.6,2.7-5,5.2-7.3c2.4-2.2,5.7-4.1,9.9-5.6
		c4.2-1.5,9.4-2.2,15.6-2.2c3.1,0,6.5,0.2,10.2,0.5c3.7,0.3,7.6,0.9,11.7,1.8v12.1c-4.3-1-8.3-1.8-12.1-2.3
		c-3.8-0.5-7.1-0.7-9.9-0.7c-3.4,0-6.2,0.3-8.5,0.8c-2.3,0.5-4.2,1.2-5.6,2.1c-1.4,0.9-2.5,2-3.1,3.2c-0.6,1.2-0.9,2.5-0.9,3.9
		s0.3,2.7,0.8,3.8c0.5,1.1,1.6,2.3,3,3.3c1.5,1.1,3.5,2.1,6.2,3.2c2.7,1.1,6.1,2.2,10.4,3.5c4.6,1.4,8.5,2.8,11.7,4.3
		c3.2,1.5,5.7,3.1,7.7,5c2,1.8,3.4,3.9,4.3,6.2C2089.7,370.8,2090.1,373.4,2090.1,376.3z"/>
	<linearGradient id="SVGID_65_" gradientUnits="userSpaceOnUse" x1="2143.7058" y1="294.3553" x2="2143.7058" y2="398.7864">
		<stop  offset="0" style="stop-color:#FFFFFF"/>
		<stop  offset="0.2111" style="stop-color:#878787"/>
		<stop  offset="0.5188" style="stop-color:#FFFFFF"/>
		<stop  offset="0.5974" style="stop-color:#000000"/>
		<stop  offset="0.7718" style="stop-color:#C6C6C6"/>
		<stop  offset="1" style="stop-color:#FFFFFF"/>
	</linearGradient>
	<path class="st64" d="M2179,396.6c-3.1,0.8-6.2,1.3-9.5,1.7c-3.3,0.3-6.6,0.5-10,0.5c-9.8,0-17.2-2.2-22-6.7
		c-4.8-4.4-7.3-11.3-7.3-20.5v-40.9h-21.9v-11.4h21.9v-21.5l13.6-3.5v25h35.2v11.4h-35.2v39.8c0,5.6,1.5,9.8,4.5,12.6
		c3,2.8,7.4,4.2,13.2,4.2c2.5,0,5.2-0.2,8.2-0.6s6.1-1,9.3-1.8V396.6z"/>
	<linearGradient id="SVGID_66_" gradientUnits="userSpaceOnUse" x1="2319.3435" y1="294.3553" x2="2319.3435" y2="398.7864">
		<stop  offset="0" style="stop-color:#FFFFFF"/>
		<stop  offset="0.2111" style="stop-color:#878787"/>
		<stop  offset="0.5188" style="stop-color:#FFFFFF"/>
		<stop  offset="0.5974" style="stop-color:#000000"/>
		<stop  offset="0.7718" style="stop-color:#C6C6C6"/>
		<stop  offset="1" style="stop-color:#FFFFFF"/>
	</linearGradient>
	<path class="st65" d="M2354.7,396.6c-3.1,0.8-6.2,1.3-9.5,1.7c-3.3,0.3-6.6,0.5-10,0.5c-9.8,0-17.2-2.2-22-6.7s-7.3-11.3-7.3-20.5
		v-40.9H2284v-11.4h21.9v-21.5l13.6-3.5v25h35.2v11.4h-35.2v39.8c0,5.6,1.5,9.8,4.5,12.6c3,2.8,7.4,4.2,13.2,4.2
		c2.5,0,5.2-0.2,8.2-0.6s6.1-1,9.3-1.8V396.6z"/>
	<linearGradient id="SVGID_67_" gradientUnits="userSpaceOnUse" x1="2410.7888" y1="317.9868" x2="2410.7888" y2="399.0984">
		<stop  offset="0" style="stop-color:#FFFFFF"/>
		<stop  offset="0.2111" style="stop-color:#878787"/>
		<stop  offset="0.5188" style="stop-color:#FFFFFF"/>
		<stop  offset="0.5974" style="stop-color:#000000"/>
		<stop  offset="0.7718" style="stop-color:#C6C6C6"/>
		<stop  offset="1" style="stop-color:#FFFFFF"/>
	</linearGradient>
	<path class="st66" d="M2445.5,354.4c0,1.9,0,3.5-0.1,4.8c-0.1,1.3-0.1,2.5-0.2,3.7h-55c0,8,2.2,14.2,6.7,18.4
		c4.5,4.3,10.9,6.4,19.3,6.4c2.3,0,4.6-0.1,6.9-0.3c2.3-0.2,4.5-0.4,6.6-0.7c2.1-0.3,4.2-0.7,6.1-1.1c1.9-0.4,3.8-0.8,5.4-1.3v11.2
		c-3.7,1-7.9,1.9-12.5,2.5c-4.7,0.6-9.5,1-14.5,1c-6.7,0-12.5-0.9-17.3-2.7s-8.8-4.5-11.9-7.9c-3.1-3.5-5.4-7.7-6.9-12.7
		c-1.5-5-2.2-10.7-2.2-17c0-5.5,0.8-10.7,2.4-15.6c1.6-4.9,3.9-9.2,6.9-12.9c3-3.7,6.8-6.7,11.2-8.9c4.4-2.2,9.4-3.3,15.1-3.3
		c5.5,0,10.3,0.9,14.5,2.6c4.2,1.7,7.8,4.1,10.6,7.3c2.9,3.1,5.1,7,6.6,11.5C2444.8,343.8,2445.5,348.8,2445.5,354.4z M2431.4,352.5
		c0.2-3.5-0.2-6.7-1-9.6c-0.8-2.9-2.1-5.4-3.9-7.4c-1.7-2.1-3.9-3.7-6.5-4.9c-2.6-1.2-5.6-1.8-9-1.8c-3,0-5.7,0.6-8.1,1.7
		c-2.4,1.1-4.6,2.8-6.3,4.8c-1.8,2.1-3.2,4.6-4.3,7.5c-1.1,2.9-1.8,6.1-2,9.6H2431.4z"/>
	<linearGradient id="SVGID_68_" gradientUnits="userSpaceOnUse" x1="2497.5549" y1="318.2988" x2="2497.5549" y2="398.7864">
		<stop  offset="0" style="stop-color:#FFFFFF"/>
		<stop  offset="0.2111" style="stop-color:#878787"/>
		<stop  offset="0.5188" style="stop-color:#FFFFFF"/>
		<stop  offset="0.5974" style="stop-color:#000000"/>
		<stop  offset="0.7718" style="stop-color:#C6C6C6"/>
		<stop  offset="1" style="stop-color:#FFFFFF"/>
	</linearGradient>
	<path class="st67" d="M2528,394.8c-3.5,1.4-7.2,2.4-10.9,3c-3.7,0.6-7.6,1-11.5,1c-12.4,0-21.9-3.4-28.6-10.1
		c-6.7-6.7-10-16.5-10-29.4c0-6.2,1-11.8,2.9-16.8c1.9-5,4.6-9.4,8.1-12.9c3.5-3.6,7.6-6.4,12.5-8.3c4.8-1.9,10.2-2.9,16-2.9
		c4.1,0,7.8,0.3,11.4,0.9c3.5,0.6,6.9,1.5,10.1,2.8v12.9c-3.4-1.8-6.8-3.1-10.3-3.9c-3.5-0.8-7.1-1.2-10.9-1.2c-3.5,0-6.8,0.7-9.9,2
		c-3.1,1.3-5.8,3.2-8.2,5.7c-2.3,2.5-4.2,5.5-5.5,9.1c-1.4,3.6-2,7.6-2,12.2c0,9.5,2.3,16.5,6.9,21.3c4.6,4.7,11,7.1,19.1,7.1
		c3.7,0,7.3-0.4,10.7-1.2c3.5-0.8,6.8-2.1,10-3.7V394.8z"/>
	<linearGradient id="SVGID_69_" gradientUnits="userSpaceOnUse" x1="2586.5046" y1="287.492" x2="2586.5046" y2="397.6945">
		<stop  offset="0" style="stop-color:#FFFFFF"/>
		<stop  offset="0.2111" style="stop-color:#878787"/>
		<stop  offset="0.5188" style="stop-color:#FFFFFF"/>
		<stop  offset="0.5974" style="stop-color:#000000"/>
		<stop  offset="0.7718" style="stop-color:#C6C6C6"/>
		<stop  offset="1" style="stop-color:#FFFFFF"/>
	</linearGradient>
	<path class="st68" d="M2618,397.7h-13.6v-50c0-6-1.1-10.5-3.4-13.5c-2.3-3-5.5-4.5-9.7-4.5c-1.8,0-3.5,0.2-5.1,0.7
		c-1.6,0.5-3.2,1.4-5,2.6c-1.7,1.2-3.6,2.9-5.6,5c-2,2.1-4.4,4.7-7,7.8v51.9H2555V287.5h13.6v31.9l-0.5,12.3
		c2.1-2.5,4.2-4.7,6.3-6.4c2.1-1.7,4.1-3.2,6.2-4.3c2.1-1.1,4.1-1.9,6.3-2.3c2.1-0.5,4.3-0.7,6.6-0.7c7.8,0,13.8,2.4,18.1,7.1
		c4.3,4.8,6.4,11.9,6.4,21.5V397.7z"/>
	<linearGradient id="SVGID_70_" gradientUnits="userSpaceOnUse" x1="2674.3232" y1="317.9868" x2="2674.3232" y2="397.6945">
		<stop  offset="0" style="stop-color:#FFFFFF"/>
		<stop  offset="0.2111" style="stop-color:#878787"/>
		<stop  offset="0.5188" style="stop-color:#FFFFFF"/>
		<stop  offset="0.5974" style="stop-color:#000000"/>
		<stop  offset="0.7718" style="stop-color:#C6C6C6"/>
		<stop  offset="1" style="stop-color:#FFFFFF"/>
	</linearGradient>
	<path class="st69" d="M2642.9,319.4h12.1l0.5,12.6c2.3-2.7,4.5-5,6.6-6.7c2.1-1.8,4.2-3.2,6.3-4.3c2.1-1.1,4.1-1.9,6.3-2.3
		c2.1-0.4,4.3-0.7,6.6-0.7c8.1,0,14.2,2.4,18.3,7.1c4.1,4.8,6.2,11.9,6.2,21.5v51.1h-13.6v-50c0-6.1-1.1-10.7-3.4-13.6
		c-2.3-2.9-5.7-4.4-10.2-4.4c-1.7,0-3.3,0.2-4.9,0.7c-1.6,0.5-3.2,1.4-5,2.6c-1.7,1.2-3.6,2.9-5.6,5c-2,2.1-4.3,4.7-6.7,7.8v51.9
		h-13.6V319.4z"/>
	<linearGradient id="SVGID_71_" gradientUnits="userSpaceOnUse" x1="2762.103" y1="317.9868" x2="2762.103" y2="399.0984">
		<stop  offset="0" style="stop-color:#FFFFFF"/>
		<stop  offset="0.2111" style="stop-color:#878787"/>
		<stop  offset="0.5188" style="stop-color:#FFFFFF"/>
		<stop  offset="0.5974" style="stop-color:#000000"/>
		<stop  offset="0.7718" style="stop-color:#C6C6C6"/>
		<stop  offset="1" style="stop-color:#FFFFFF"/>
	</linearGradient>
	<path class="st70" d="M2798.8,357.9c0,6.1-0.9,11.7-2.6,16.7c-1.7,5.1-4.2,9.4-7.4,13c-3.2,3.6-7.2,6.4-11.8,8.4
		c-4.6,2-9.9,3-15.8,3c-5.6,0-10.6-0.9-15.1-2.6c-4.4-1.7-8.2-4.3-11.3-7.7c-3.1-3.4-5.5-7.6-7.1-12.6c-1.6-5-2.5-10.7-2.5-17.2
		c0-6.1,0.9-11.6,2.6-16.7c1.7-5,4.2-9.3,7.4-12.9c3.2-3.6,7.1-6.4,11.8-8.4c4.6-2,9.9-3,15.8-3c5.6,0,10.6,0.9,15.1,2.6
		c4.4,1.7,8.2,4.3,11.3,7.6c3.1,3.4,5.5,7.5,7.1,12.5C2798,345.8,2798.8,351.5,2798.8,357.9z M2785,358.5c0-4.8-0.5-9.1-1.6-12.7
		c-1.1-3.6-2.6-6.6-4.6-9c-2-2.4-4.4-4.2-7.2-5.5c-2.8-1.2-6-1.8-9.5-1.8c-4.1,0-7.5,0.8-10.4,2.4c-2.9,1.6-5.3,3.7-7.1,6.4
		c-1.8,2.7-3.2,5.7-4.1,9.2s-1.3,7.2-1.3,11c0,4.8,0.5,9.1,1.6,12.7c1.1,3.6,2.6,6.7,4.6,9.1c2,2.4,4.4,4.2,7.2,5.5
		c2.8,1.2,6,1.8,9.5,1.8c4.1,0,7.5-0.8,10.4-2.4c2.9-1.6,5.3-3.7,7.1-6.4c1.8-2.7,3.2-5.7,4.1-9.2
		C2784.5,366.1,2785,362.4,2785,358.5z"/>
	<linearGradient id="SVGID_72_" gradientUnits="userSpaceOnUse" x1="2850.8188" y1="287.492" x2="2850.8188" y2="397.6945">
		<stop  offset="0" style="stop-color:#FFFFFF"/>
		<stop  offset="0.2111" style="stop-color:#878787"/>
		<stop  offset="0.5188" style="stop-color:#FFFFFF"/>
		<stop  offset="0.5974" style="stop-color:#000000"/>
		<stop  offset="0.7718" style="stop-color:#C6C6C6"/>
		<stop  offset="1" style="stop-color:#FFFFFF"/>
	</linearGradient>
	<path class="st71" d="M2845.2,298.6H2822v-11.2h36.9v98.9h23.3v11.3h-62.8v-11.3h25.7V298.6z"/>
	<linearGradient id="SVGID_73_" gradientUnits="userSpaceOnUse" x1="2937.7407" y1="317.9868" x2="2937.7407" y2="399.0984">
		<stop  offset="0" style="stop-color:#FFFFFF"/>
		<stop  offset="0.2111" style="stop-color:#878787"/>
		<stop  offset="0.5188" style="stop-color:#FFFFFF"/>
		<stop  offset="0.5974" style="stop-color:#000000"/>
		<stop  offset="0.7718" style="stop-color:#C6C6C6"/>
		<stop  offset="1" style="stop-color:#FFFFFF"/>
	</linearGradient>
	<path class="st72" d="M2974.5,357.9c0,6.1-0.9,11.7-2.6,16.7c-1.7,5.1-4.2,9.4-7.4,13c-3.2,3.6-7.2,6.4-11.8,8.4
		c-4.6,2-9.9,3-15.8,3c-5.6,0-10.6-0.9-15.1-2.6c-4.4-1.7-8.2-4.3-11.3-7.7c-3.1-3.4-5.5-7.6-7.1-12.6c-1.6-5-2.5-10.7-2.5-17.2
		c0-6.1,0.9-11.6,2.6-16.7c1.7-5,4.2-9.3,7.4-12.9c3.2-3.6,7.1-6.4,11.8-8.4c4.6-2,9.9-3,15.8-3c5.6,0,10.6,0.9,15.1,2.6
		c4.4,1.7,8.2,4.3,11.3,7.6c3.1,3.4,5.5,7.5,7.1,12.5C2973.7,345.8,2974.5,351.5,2974.5,357.9z M2960.6,358.5
		c0-4.8-0.5-9.1-1.6-12.7c-1.1-3.6-2.6-6.6-4.6-9c-2-2.4-4.4-4.2-7.2-5.5c-2.8-1.2-6-1.8-9.5-1.8c-4.1,0-7.5,0.8-10.4,2.4
		c-2.9,1.6-5.3,3.7-7.1,6.4c-1.8,2.7-3.2,5.7-4.1,9.2s-1.3,7.2-1.3,11c0,4.8,0.5,9.1,1.6,12.7c1.1,3.6,2.6,6.7,4.6,9.1
		c2,2.4,4.4,4.2,7.2,5.5c2.8,1.2,6,1.8,9.5,1.8c4.1,0,7.5-0.8,10.4-2.4c2.9-1.6,5.3-3.7,7.1-6.4c1.8-2.7,3.2-5.7,4.1-9.2
		C2960.2,366.1,2960.6,362.4,2960.6,358.5z"/>
	<linearGradient id="SVGID_74_" gradientUnits="userSpaceOnUse" x1="3026.0276" y1="317.9868" x2="3026.0276" y2="430.451">
		<stop  offset="0" style="stop-color:#FFFFFF"/>
		<stop  offset="0.2111" style="stop-color:#878787"/>
		<stop  offset="0.5188" style="stop-color:#FFFFFF"/>
		<stop  offset="0.5974" style="stop-color:#000000"/>
		<stop  offset="0.7718" style="stop-color:#C6C6C6"/>
		<stop  offset="1" style="stop-color:#FFFFFF"/>
	</linearGradient>
	<path class="st73" d="M3050.5,330.5c1.5,1.8,2.6,3.9,3.4,6.4c0.8,2.4,1.2,5,1.2,7.8c0,4.1-0.7,7.8-2.2,11.1
		c-1.5,3.4-3.6,6.2-6.3,8.6c-2.7,2.4-5.9,4.3-9.7,5.6c-3.8,1.3-7.9,2-12.4,2c-3.3,0-6.3-0.4-9.2-1.1c-2.9-0.7-5.1-1.6-6.8-2.6
		c-1,1.5-1.8,2.8-2.5,4.1c-0.7,1.3-1,2.8-1,4.4c0,2,0.9,3.6,2.8,4.9c1.9,1.3,4.4,2,7.5,2.1l20.6,0.8c3.9,0.1,7.5,0.6,10.8,1.5
		c3.3,0.9,6.1,2.2,8.5,3.8c2.4,1.7,4.2,3.7,5.5,6.2c1.3,2.4,2,5.3,2,8.5c0,3.5-0.8,6.8-2.3,9.9c-1.5,3.1-3.8,5.9-7,8.2
		c-3.1,2.4-7.1,4.3-12,5.7c-4.8,1.4-10.6,2.1-17.2,2.1c-6.3,0-11.7-0.5-16.2-1.5c-4.4-1-8.1-2.4-11-4.2c-2.9-1.8-4.9-3.9-6.2-6.4
		c-1.3-2.5-1.9-5.2-1.9-8.2c0-3.8,0.9-7.1,2.7-10c1.8-2.9,4.5-5.6,8.2-8.3c-1.4-0.6-2.5-1.4-3.5-2.3c-1-0.9-1.8-2-2.4-3.1
		c-0.6-1.1-1.1-2.3-1.4-3.5s-0.5-2.5-0.5-3.7c0-3.4,0.8-6.5,2.4-9.3c1.6-2.8,3.5-5.5,5.7-8c-1-1.2-1.9-2.4-2.6-3.5
		c-0.8-1.1-1.4-2.4-1.9-3.7s-1-2.8-1.2-4.3c-0.3-1.5-0.4-3.3-0.4-5.3c0-4.1,0.7-7.8,2.2-11.1c1.5-3.4,3.6-6.2,6.2-8.6
		c2.7-2.4,5.9-4.3,9.7-5.6c3.8-1.3,7.9-2,12.5-2c1.9,0,3.8,0.1,5.5,0.4c1.8,0.3,3.3,0.6,4.7,1h28.4v11.1H3050.5z M3003.4,409
		c0,3.7,1.9,6.4,5.8,8.1c3.8,1.7,9.2,2.5,16.1,2.5c4.3,0,7.9-0.4,10.9-1.2c2.9-0.8,5.3-1.8,7.1-3.1c1.8-1.3,3.1-2.7,3.9-4.4
		c0.8-1.6,1.2-3.3,1.2-5c0-3.2-1.3-5.5-3.9-7c-2.6-1.5-6.6-2.4-11.9-2.7l-20.4-0.7c-1.7,1.1-3.1,2.3-4.3,3.4c-1.1,1.1-2,2.2-2.6,3.3
		c-0.6,1.1-1.1,2.2-1.3,3.4C3003.5,406.7,3003.4,407.9,3003.4,409z M3007.5,345c0,2.5,0.4,4.8,1.2,6.9c0.8,2.1,2,3.8,3.5,5.3
		c1.5,1.5,3.3,2.6,5.3,3.4c2.1,0.8,4.3,1.2,6.8,1.2c2.7,0,5.1-0.5,7.2-1.4c2.1-0.9,3.9-2.1,5.3-3.7c1.4-1.6,2.5-3.4,3.3-5.4
		c0.8-2,1.1-4.1,1.1-6.3c0-2.5-0.4-4.8-1.2-6.9c-0.8-2.1-2-3.8-3.5-5.3c-1.5-1.5-3.3-2.6-5.3-3.4c-2.1-0.8-4.3-1.2-6.8-1.2
		c-2.7,0-5.1,0.5-7.2,1.4c-2.1,0.9-3.9,2.2-5.3,3.7c-1.4,1.5-2.5,3.3-3.3,5.3C3007.9,340.7,3007.5,342.8,3007.5,345z"/>
	<linearGradient id="SVGID_75_" gradientUnits="userSpaceOnUse" x1="3112.8325" y1="319.3907" x2="3112.8325" y2="430.1391">
		<stop  offset="0" style="stop-color:#FFFFFF"/>
		<stop  offset="0.2111" style="stop-color:#878787"/>
		<stop  offset="0.5188" style="stop-color:#FFFFFF"/>
		<stop  offset="0.5974" style="stop-color:#000000"/>
		<stop  offset="0.7718" style="stop-color:#C6C6C6"/>
		<stop  offset="1" style="stop-color:#FFFFFF"/>
	</linearGradient>
	<path class="st74" d="M3151.6,319.4l-26.7,70c-2.8,7.1-5.6,13.3-8.5,18.4c-2.9,5.1-6.2,9.4-9.6,12.7c-3.5,3.3-7.3,5.7-11.5,7.3
		c-4.2,1.6-8.8,2.3-14,2.3c-1.4,0-2.6,0-3.7-0.1c-1.1-0.1-2.3-0.1-3.6-0.2v-12.3c1.1,0.2,2.4,0.3,3.7,0.4c1.4,0.1,2.8,0.2,4.3,0.2
		c2.5,0,4.8-0.4,7-1.1c2.2-0.7,4.2-1.9,6.1-3.5c1.9-1.6,3.8-3.8,5.5-6.4c1.8-2.6,3.5-5.7,5.1-9.4l-31.3-78.3h15.4l19.8,51.8l4,12.2
		l4.5-12.5l18.3-51.5H3151.6z"/>
</g>
</svg>
